<?xml version="1.0" encoding="utf-8"?>
<!-- Generator: Adobe Illustrator 26.3.1, SVG Export Plug-In . SVG Version: 6.00 Build 0)  -->
<svg version="1.1" id="katman_1" xmlns="http://www.w3.org/2000/svg" xmlns:xlink="http://www.w3.org/1999/xlink" x="0px" y="0px"
	 viewBox="0 0 648.99 311.63" style="enable-background:new 0 0 648.99 311.63;" xml:space="preserve">
<style type="text/css">
	.st0{fill:#010202;stroke:#FAEAC7;stroke-width:3;stroke-miterlimit:10;}
	.st1{fill:#1E1E1C;stroke:#FAEAC7;stroke-width:2;stroke-miterlimit:10;}
	.st2{fill:#FAEAC7;}
	.st3{clip-path:url(#SVGID_00000035523733211018318710000012365398537422129342_);}
	.st4{fill:none;stroke:#FAEAC7;stroke-width:4;stroke-miterlimit:10;}
	.st5{fill:#FFFFFF;}
</style>
<g>
	<g>
		<circle class="st0" cx="118.69" cy="147.91" r="73.78"/>
		<circle class="st1" cx="118.69" cy="147.91" r="56.14"/>
		<g>
			<polygon class="st2" points="183.21,143.31 184.47,147.34 188.55,147.34 185.25,149.83 186.51,153.87 183.21,151.37 
				179.91,153.87 181.17,149.83 177.88,147.34 181.95,147.34 			"/>
			<polygon class="st2" points="181.6,155.79 182.61,159.03 185.88,159.03 183.23,161.02 184.24,164.26 181.6,162.26 178.95,164.26 
				179.96,161.02 177.32,159.03 180.59,159.03 			"/>
			<polygon class="st2" points="181.6,132.08 182.61,135.31 185.88,135.31 183.23,137.31 184.24,140.54 181.6,138.54 178.95,140.54 
				179.96,137.31 177.32,135.31 180.59,135.31 			"/>
		</g>
		<g>
			<polygon class="st2" points="53.09,143.31 51.83,147.34 47.76,147.34 51.05,149.83 49.79,153.87 53.09,151.37 56.39,153.87 
				55.13,149.83 58.43,147.34 54.35,147.34 			"/>
			<polygon class="st2" points="54.71,155.79 53.7,159.03 50.43,159.03 53.07,161.02 52.06,164.26 54.71,162.26 57.35,164.26 
				56.34,161.02 58.98,159.03 55.72,159.03 			"/>
			<polygon class="st2" points="54.71,132.08 53.7,135.31 50.43,135.31 53.07,137.31 52.06,140.54 54.71,138.54 57.35,140.54 
				56.34,137.31 58.98,135.31 55.72,135.31 			"/>
		</g>
		<g>
			<g>
				<defs>
					<circle id="SVGID_1_" cx="118.58" cy="148.37" r="56"/>
				</defs>
				<clipPath id="SVGID_00000183234085842597963300000016362824736836854952_">
					<use xlink:href="#SVGID_1_"  style="overflow:visible;"/>
				</clipPath>
				<g style="clip-path:url(#SVGID_00000183234085842597963300000016362824736836854952_);">
					<path class="st2" d="M88.76,143.57c0.85-3.15,1.72-6.36,2.6-9.56c0.06-0.23,0.22-0.59,0.36-0.6c1.74-0.21,2.49-1.52,3.07-2.88
						c0.84-1.96,2.68-2.22,4.33-2.62c2.04-0.49,4.16-0.7,6.26-0.88c0.54-0.05,1.34,0.35,1.66,0.8c0.56,0.81,0.66,1.84-0.09,2.66
						c-1.05,1.15-2.18,2.24-3.27,3.36c-0.52,0.53-1.06,1.04-1.52,1.61c-0.8,0.97-1.19,2.16-0.55,3.27c0.93,1.61,0.46,3.21-0.08,4.6
						c-1.85,4.7-3.93,9.32-5.95,13.95c-0.48,1.11-0.93,2.26-1.61,3.24c-0.96,1.39-2.11,1.36-2.78-0.16
						c-0.68-1.56-1.14-3.28-1.34-4.97C89.37,151.53,89.12,147.64,88.76,143.57z M102.22,128.61c-1.13-0.07-2.07,0.78-2.1,1.9
						c-0.03,1.11,0.9,2.22,1.87,2.24c1.14,0.03,2.1-0.81,2.18-1.91C104.26,129.62,103.45,128.69,102.22,128.61z"/>
					<path class="st2" d="M145.33,135.92c-3.2-0.54-6.05-1.05-8.91-1.5c-6.93-1.08-13.9-1.62-20.91-1.34
						c-1.13,0.04-2.25,0.2-3.38,0.22c-1.79,0.02-2.42-0.92-1.79-2.61c0.49-1.32,0.9-2.57,0.13-3.99c-0.49-0.91,0.82-2.67,2.28-2.81
						c1.66-0.17,3.37,0,5.04,0.15c3.89,0.36,7.79,0.68,11.66,1.23c3.25,0.46,6.47,1.17,9.69,1.89c0.41,0.09,0.94,0.87,0.94,1.33
						c0.05,2.51,1.23,4.25,3.29,5.57C144.07,134.51,144.62,135.23,145.33,135.92z"/>
					<path class="st2" d="M151.66,140.92c-0.94,0.06-1.94,0.35-2.83,0.14c-6.09-1.41-12.2-1.19-18.28-0.18
						c-5.04,0.84-10.03,2.03-15.05,2.98c-1.53,0.29-3.1,0.4-4.66,0.42c-1.48,0.02-1.91-0.72-1.58-2.14c0.4-1.72,1.01-3.41,0.15-5.22
						c-0.38-0.81,0.29-1.44,1.05-1.67c0.74-0.22,1.53-0.32,2.31-0.34c10.04-0.29,20,0.39,29.78,2.81c2.69,0.66,5.36,1.44,8.03,2.18
						c0.39,0.11,0.75,0.34,1.12,0.51C151.69,140.59,151.68,140.75,151.66,140.92z"/>
					<path class="st2" d="M84.98,125.79c0.07-2.68,1.08-3.71,3.53-3.06c3.32,0.88,5.87-0.82,8.6-2c0.23-0.1,0.41-0.52,0.44-0.81
						c0.26-3.01,1.26-3.64,4.06-2.5c0.07,0.03,0.17-0.01,0.33-0.02c0.1-0.19,0.24-0.4,0.35-0.63c0.88-1.86,2.28-2.17,3.86-0.86
						c0.9,0.75,1.76,1.57,2.73,2.2c2.28,1.48,4.87,2.02,7.55,2.15c3.13,0.15,6.26,0.35,9.39,0.39c3.95,0.05,7.72,1.03,11.52,1.95
						c4.59,1.1,9.29,1.82,13.55,3.97c4.83,2.44,9.3,5.34,11.4,10.7c0.36,0.91,0.58,1.92,0.63,2.9c0.11,2.07-1.33,3.52-3.43,3.61
						c-0.74,0.03-1.48-0.03-2.22,0.02c-0.42,0.03-0.94,0.07-1.23,0.32c-1.7,1.42-3.75,1.54-5.66,1.1
						c-6.41-1.48-12.8-1.08-19.16,0.03c-4.74,0.82-9.42,1.93-14.13,2.92c-2.96,0.62-5.89,0.45-8.73-0.56
						c-0.98-0.35-1.33-0.02-1.65,0.79c-3.21,8-6.26,16.08-9.71,23.97c-2.06,4.7-2.49,9.61-3.07,14.56
						c-0.42,3.54-0.93,7.06-1.37,10.6c-0.6,4.83-1.16,9.66-1.76,14.48c-0.44,3.53-0.92,7.06-1.37,10.6
						c-0.33,2.58-0.75,5.16-0.93,7.76c-0.13,1.88-0.92,3.16-2.48,4.12c-2.63,1.61-5.21,3.29-7.82,4.95
						c-0.4,0.26-0.81,0.51-1.21,0.77c-1.49,0.98-3.19,0.2-3.41-1.6c-0.06-0.52-0.03-1.04-0.03-1.57c0-11.24,0-22.48,0-33.72
						c0-0.49,0-0.98,0-1.47c-0.13-0.03-0.25-0.05-0.38-0.08c-0.93,1.59-1.84,3.19-2.79,4.77c-0.33,0.55-0.67,1.14-1.14,1.56
						c-1.32,1.18-3.09,0.61-3.52-1.11c-0.16-0.67-0.23-1.37-0.23-2.06c-0.01-12.07,0.07-24.13-0.07-36.2
						c-0.03-2.97,0.74-5.46,2.21-7.97c5.29-9.03,10.45-18.13,15.69-27.19c0.45-0.77,0.48-1.28-0.21-1.91
						c-0.67-0.61-1.24-1.34-1.83-2.03c-0.75-0.87-0.98-1.87-0.43-2.89c0.58-1.08,1.54-1.47,2.76-1.18
						C84.03,125.69,84.46,125.72,84.98,125.79z M83.73,128.98c0.78,0.99,1.57,1.96,2.34,2.95c0.49,0.62,0.5,1.21,0.07,1.94
						c-2.63,4.52-5.2,9.07-7.8,13.6c-3.1,5.4-6.2,10.81-9.33,16.2c-1.11,1.91-0.99,1.58-0.99,3.65
						c-0.02,12.09-0.04,24.18-0.05,36.27c0,0.42,0,0.84,0.01,1.25c0,0.16,0.02,0.34,0.31,0.35c0.2-0.34,0.41-0.69,0.61-1.05
						c1.87-3.31,3.74-6.63,5.62-9.94c0.19-0.33,0.37-0.66,0.59-0.96c0.08-0.12,0.31-0.25,0.4-0.22c0.17,0.07,0.38,0.25,0.41,0.41
						c0.08,0.41,0.08,0.83,0.08,1.24c0,13.72,0,27.44,0,41.16c0,0.46,0,0.92,0.01,1.38c0,0.15,0.06,0.3,0.12,0.56
						c0.29-0.15,0.51-0.25,0.71-0.37c2.74-1.77,5.47-3.56,8.22-5.3c0.56-0.35,0.77-0.78,0.84-1.42c0.33-2.91,0.71-5.81,1.07-8.72
						c0.47-3.78,0.94-7.55,1.42-11.33c0.45-3.61,0.9-7.22,1.35-10.83c0.46-3.69,0.93-7.39,1.39-11.08c0.45-3.65,0.9-7.3,1.35-10.96
						c0.09-0.75,0.31-1.46,0.6-2.17c2.79-6.76,5.56-13.53,8.34-20.3c1.35-3.29,2.69-6.58,4.05-9.86c0.17-0.41,0.23-0.9,0.7-1.16
						c0.37,0.12,0.72,0.26,1.08,0.36c1.49,0.42,2.97,0.87,4.47,1.22c0.93,0.22,1.89,0.38,2.86,0.16c0.73-0.16,1.47-0.3,2.21-0.45
						c3.48-0.7,6.9-1.69,10.42-2.24c3.72-0.58,7.43-1.22,11.19-1.47c1.17-0.08,2.33-0.23,3.5-0.3c0.54-0.03,1.1-0.04,1.62,0.09
						c1.55,0.38,3.13,0.51,4.7,0.75c1.2,0.18,2.41,0.31,3.61,0.43c1.02,0.1,2.01,0,2.8-0.78c0.48-0.47,1.08-0.6,1.73-0.59
						c0.59,0,1.18,0.05,1.75-0.03c0.61-0.09,1.22-0.25,1.81-0.47c0.45-0.16,0.56-0.45,0.45-0.91c-0.09-0.41-0.21-0.81-0.34-1.21
						c-0.82-2.49-2.29-4.54-4.24-6.27c-1.54-1.37-3.27-2.46-5.13-3.35c-2.54-1.2-5.14-2.23-7.89-2.85c-0.86-0.19-1.7-0.43-2.56-0.61
						c-2.82-0.61-5.63-1.25-8.46-1.81c-1.97-0.4-3.99-0.45-5.99-0.56c-3.22-0.17-6.43-0.32-9.65-0.47c-1.3-0.06-2.58-0.26-3.84-0.6
						c-2.71-0.72-5.21-1.81-7.16-3.93c-0.13-0.14-0.32-0.23-0.62-0.44c0.11,0.82,0.2,1.48,0.28,2.13c0.14,1.07-0.23,1.38-1.28,1.02
						c-0.36-0.12-0.7-0.28-1.04-0.43c-0.53-0.24-1.06-0.5-1.6-0.73c-0.16-0.07-0.36-0.06-0.59-0.09c0,0.26-0.01,0.42,0,0.59
						c0.06,1.13-0.38,1.87-1.49,2.32c-1.62,0.66-3.23,1.4-4.77,2.24c-1.26,0.69-2.53,0.76-3.88,0.56c-0.33-0.05-0.66-0.12-0.99-0.15
						c-0.4-0.03-0.81-0.18-1.3,0.03c0,0.54,0.02,1.08-0.01,1.61c-0.03,0.53-0.01,1.09-0.38,1.56c-1.38-0.13-2.72-0.44-4.24-0.43
						C83.42,128.53,83.56,128.77,83.73,128.98z"/>
				</g>
			</g>
			<g>
				<g>
					<line class="st4" x1="92.24" y1="190.89" x2="174.92" y2="147.8"/>
					<line class="st4" x1="91.86" y1="197.01" x2="174.49" y2="154.48"/>
				</g>
			</g>
			<path class="st2" d="M131,177.92c-0.07-0.01-0.15-0.02-0.22-0.02c-0.26-0.03-0.5-0.05-0.74-0.06c-0.24-0.01-0.46-0.03-0.67-0.02
				c-0.21,0-0.41,0.01-0.59,0.01c-0.18,0.01-0.35,0.03-0.51,0.04c-0.31,0.01-0.55,0.08-0.71,0.09c-0.16,0.03-0.25,0.04-0.25,0.04
				l0.18,0.84c0,0,0.08-0.02,0.23-0.04c0.15-0.02,0.36-0.09,0.64-0.11c0.14-0.02,0.29-0.04,0.46-0.06c0.17-0.01,0.36-0.02,0.55-0.03
				c0.2-0.01,0.41-0.01,0.63,0c0.22,0,0.46,0.01,0.7,0.03c0.25,0.01,0.5,0.03,0.77,0.07c0.27,0.03,0.54,0.06,0.82,0.11
				c0.28,0.04,0.57,0.09,0.86,0.15c0.29,0.05,0.59,0.12,0.89,0.19c1.21,0.29,2.49,0.67,3.74,1.13c2.51,0.91,4.93,2.05,6.71,2.97
				c1.78,0.92,2.93,1.62,2.93,1.62s-1.16-0.66-2.97-1.53c-1.81-0.87-4.27-1.93-6.8-2.76c-1.27-0.42-2.56-0.77-3.77-1.01
				c-0.3-0.06-0.61-0.12-0.9-0.17c-0.29-0.05-0.58-0.09-0.87-0.13c-0.28-0.04-0.56-0.07-0.82-0.09c-0.22-0.02-0.43-0.03-0.64-0.04
				c0.2,8.88,8.51,6.82,13.8,6.32c2.45-0.23,3.99,0.01,3.99,0.01S139.2,168.54,131,177.92z"/>
			<path class="st2" d="M120.78,174.93c-0.05,0.08-0.11,0.15-0.16,0.23c-0.18,0.27-0.37,0.52-0.56,0.75
				c-0.19,0.23-0.36,0.46-0.54,0.66c-0.18,0.2-0.35,0.39-0.51,0.56c-0.17,0.17-0.32,0.32-0.46,0.45c-0.27,0.28-0.53,0.47-0.68,0.61
				c-0.16,0.14-0.25,0.21-0.25,0.21l-0.64-0.8c0,0,0.08-0.06,0.23-0.18c0.15-0.12,0.38-0.28,0.64-0.53c0.13-0.12,0.28-0.26,0.44-0.4
				c0.15-0.16,0.32-0.33,0.49-0.51c0.18-0.18,0.35-0.39,0.54-0.6c0.19-0.21,0.38-0.45,0.56-0.7c0.19-0.24,0.39-0.5,0.58-0.78
				c0.2-0.27,0.39-0.56,0.58-0.87c0.2-0.3,0.39-0.61,0.58-0.94c0.19-0.32,0.38-0.66,0.57-1c0.74-1.37,1.45-2.87,2.07-4.41
				c1.25-3.07,2.2-6.23,2.82-8.61c0.62-2.38,0.92-3.99,0.92-3.99s-0.35,1.6-1.05,3.97c-0.69,2.37-1.74,5.51-3.09,8.55
				c-0.67,1.52-1.42,3.01-2.2,4.36c-0.2,0.34-0.39,0.67-0.6,0.98c-0.2,0.32-0.4,0.63-0.61,0.92c-0.2,0.3-0.4,0.58-0.61,0.85
				c-0.16,0.23-0.33,0.44-0.5,0.64c-8.25-6.74,0.67-13.17,5.58-17.86c2.28-2.17,3.34-3.82,3.34-3.82S136.55,174.02,120.78,174.93z"
				/>
		</g>
		<g>
			<path class="st2" d="M54.31,117.64l2.24-4.08c1.61-2.94,4.82-3.8,8.06-2.02c3.24,1.77,4.24,4.94,2.63,7.87l-2.24,4.08
				L54.31,117.64z M65.14,118.41c0.98-1.78,0.35-3.64-1.69-4.76c-2.04-1.12-3.95-0.65-4.93,1.14l-1.04,1.9l6.62,3.63L65.14,118.41z"
				/>
			<path class="st2" d="M74.49,105.42l1.74,1.44l-5.07,6.1l-9.37-7.78l4.94-5.95l1.74,1.44l-3.44,4.14l2.03,1.69l3.04-3.66l1.69,1.4
				l-3.04,3.66l2.17,1.8L74.49,105.42z"/>
			<path class="st2" d="M84.88,99.54l-4.55-5.72l1.37,6.59l-0.84,0.67l-5.99-2.73l4.44,5.6l-1.74,1.38l-7.56-9.54l1.53-1.22
				l7.7,3.55l-1.74-8.27l1.52-1.21l7.58,9.52L84.88,99.54z"/>
			<path class="st2" d="M87.61,96.28l-0.24-2.26c1.11,0.27,2.49,0.16,3.59-0.4c1.25-0.64,1.51-1.39,1.17-2.06
				c-1.03-2.03-5.63,2.07-7.68-1.97c-0.94-1.85-0.46-4.02,2.13-5.34c1.15-0.59,2.48-0.86,3.65-0.65l0.32,2.24
				c-1.14-0.14-2.16,0.02-2.96,0.44c-1.25,0.64-1.45,1.44-1.1,2.13c1.01,2,5.62-2.08,7.64,1.9c0.92,1.82,0.44,4.01-2.16,5.34
				C90.51,96.39,88.79,96.62,87.61,96.28z"/>
			<path class="st2" d="M103.18,88.35l-4.56,1.37l-0.12,2.76l-2.33,0.7l0.88-12.96l2.25-0.67l7.88,10.33l-2.39,0.72L103.18,88.35z
				 M101.85,86.52l-2.89-3.99l-0.22,4.93L101.85,86.52z"/>
			<path class="st2" d="M112.15,88.05l0.74-2.15c0.89,0.72,2.19,1.2,3.42,1.16c1.4-0.05,1.96-0.62,1.93-1.37
				c-0.07-2.28-5.97-0.52-6.11-5.04c-0.07-2.07,1.28-3.84,4.19-3.93c1.29-0.04,2.61,0.28,3.59,0.96l-0.66,2.16
				c-0.97-0.61-1.96-0.89-2.86-0.86c-1.4,0.05-1.92,0.69-1.9,1.45c0.07,2.24,5.97,0.5,6.11,4.97c0.06,2.03-1.3,3.82-4.22,3.92
				C114.74,89.37,113.09,88.85,112.15,88.05z"/>
			<path class="st2" d="M130.67,87.93l-0.31,2.24l-7.86-1.07l1.65-12.06l7.67,1.04l-0.31,2.24l-5.33-0.73l-0.36,2.62l4.71,0.64
				l-0.3,2.17l-4.71-0.64l-0.38,2.79L130.67,87.93z"/>
			<path class="st2" d="M133.62,84.65c1.13-3.49,4.19-5.26,7.23-4.28c1.68,0.55,2.85,1.73,3.34,3.35l-1.96,1.12
				c-0.36-1.11-1.04-1.84-2.01-2.15c-1.82-0.59-3.61,0.51-4.32,2.7c-0.71,2.18,0.1,4.13,1.92,4.72c0.97,0.31,1.94,0.12,2.89-0.58
				l0.93,2.06c-1.35,1.04-2.99,1.32-4.69,0.77C133.94,91.38,132.49,88.15,133.62,84.65z"/>
			<path class="st2" d="M145.12,89.44l3.3-5.97l2.07,1.15l-3.25,5.88c-1.12,2.03-0.84,3.28,0.42,3.97c1.27,0.7,2.46,0.27,3.58-1.76
				l3.25-5.88l2.05,1.13l-3.3,5.97c-1.73,3.14-4.2,4.04-6.75,2.64C143.94,95.15,143.39,92.58,145.12,89.44z"/>
			<path class="st2" d="M157.64,104.25l0.67-3.87l-0.09-0.08l-1.58-1.33l-2.19,2.6l-1.81-1.52l7.84-9.33l3.39,2.85
				c2.09,1.76,2.32,4.15,0.56,6.24c-1.18,1.4-2.63,1.93-4.09,1.59l-0.76,4.47L157.64,104.25z M162.3,95.25l-1.47-1.24l-2.73,3.25
				l1.47,1.24c1.11,0.93,2.18,0.79,3.04-0.22C163.47,97.25,163.41,96.18,162.3,95.25z"/>
			<path class="st2" d="M169.87,99.3l1.58,1.76l-9.05,8.14l-1.58-1.76L169.87,99.3z"/>
			<path class="st2" d="M173.57,107.4l-1.87-2.69l1.89-1.31l5.09,7.33l-1.89,1.31l-1.87-2.69l-8.11,5.65l-1.35-1.95L173.57,107.4z"
				/>
			<path class="st2" d="M175.29,121.38l-3.89,1.86l-1.02-2.14l3.92-1.88l5.35-6.96l1.09,2.27l-3.69,4.81l6.06,0.13l1,2.09
				L175.29,121.38z"/>
		</g>
		<g>
			<path class="st2" d="M65.46,171.06l1.82,4.32c1.31,3.11,0.09,6.14-3.18,7.52c-3.27,1.37-6.29,0.13-7.61-2.98l-1.83-4.32
				L65.46,171.06z M58.5,178.95c0.8,1.89,2.6,2.59,4.66,1.72c2.06-0.87,2.82-2.64,2.02-4.53l-0.85-2.01l-6.69,2.81L58.5,178.95z"/>
			<path class="st2" d="M67.41,194.09l-1.76,1.26l-4.65-6.5l9.5-6.8l4.54,6.35l-1.76,1.26l-3.15-4.42l-2.06,1.48l2.79,3.9
				l-1.71,1.22l-2.79-3.9l-2.2,1.57L67.41,194.09z"/>
			<path class="st2" d="M75.56,204.97l4.64-5.27l-6.11,2.32l-0.81-0.71l1.46-6.22l-4.54,5.15l-1.68-1.48l7.74-8.77l1.48,1.31
				l-1.91,8.01l7.67-2.93l1.47,1.3l-7.72,8.79L75.56,204.97z"/>
			<path class="st2" d="M81.24,207.69l1.7-1.38c0.41,1.05,1.3,2.12,2.38,2.73c1.24,0.69,2,0.51,2.35-0.12
				c1.06-1.91-4.91-3.53-2.79-7.32c0.97-1.73,3.01-2.49,5.57-1.05c1.13,0.63,2.12,1.59,2.62,2.66l-1.64,1.43
				c-0.54-1.01-1.25-1.76-2.05-2.2c-1.24-0.69-2-0.43-2.36,0.21c-1.05,1.88,4.91,3.52,2.82,7.26c-0.95,1.7-3.02,2.46-5.59,1.02
				C82.82,210.12,81.65,208.83,81.24,207.69z"/>
			<path class="st2" d="M99.02,214.27l-4.55-1.53l-1.67,2.08l-2.33-0.78l8.1-9.61l2.24,0.75l0.65,12.55l-2.38-0.8L99.02,214.27z
				 M98.96,212.09l-0.13-4.76l-2.98,3.72L98.96,212.09z"/>
			<path class="st2" d="M109.61,217.99l0.93-1.98c0.82,0.77,2.09,1.35,3.33,1.42c1.41,0.08,2.02-0.41,2.06-1.13
				c0.13-2.18-5.95-1.04-5.69-5.38c0.12-1.98,1.63-3.55,4.56-3.37c1.3,0.08,2.6,0.51,3.51,1.25l-0.86,2.01
				c-0.92-0.68-1.89-1.03-2.8-1.09c-1.41-0.09-1.99,0.48-2.04,1.22c-0.13,2.15,5.95,1.03,5.69,5.31c-0.12,1.95-1.65,3.53-4.59,3.35
				C112.09,219.5,110.47,218.85,109.61,217.99z"/>
			<path class="st2" d="M129.56,216.46l0.24,2.16l-7.94,0.9l-1.3-11.61l7.75-0.88l0.24,2.16l-5.4,0.61l0.28,2.52l4.76-0.54
				l0.23,2.09l-4.76,0.54l0.3,2.69L129.56,216.46z"/>
			<path class="st2" d="M131.52,212.39c-1-3.38,0.56-6.47,3.65-7.39c1.71-0.51,3.35-0.23,4.66,0.77l-1.01,1.97
				c-0.92-0.67-1.89-0.87-2.88-0.57c-1.85,0.55-2.73,2.41-2.1,4.52c0.63,2.11,2.38,3.19,4.23,2.64c0.99-0.29,1.69-0.99,2.1-2.07
				l1.93,1.1c-0.55,1.57-1.77,2.7-3.49,3.21C135.53,217.49,132.52,215.76,131.52,212.39z"/>
			<path class="st2" d="M143.69,209.19l-2.98-5.82l2.13-1.09l2.93,5.74c1.01,1.98,2.19,2.4,3.48,1.74c1.3-0.67,1.63-1.87,0.62-3.84
				l-2.93-5.74l2.1-1.08l2.98,5.83c1.56,3.06,0.88,5.55-1.73,6.89S145.25,212.26,143.69,209.19z"/>
			<path class="st2" d="M163.41,203.05l-3.56-1.37l-0.09,0.07l-1.65,1.27l1.98,2.58l-1.9,1.45l-7.11-9.28l3.55-2.72
				c2.19-1.68,4.55-1.44,6.14,0.64c1.07,1.39,1.23,2.89,0.56,4.22l4.12,1.57L163.41,203.05z M155.86,196.89l-1.55,1.18l2.48,3.23
				l1.55-1.18c1.16-0.89,1.28-1.95,0.51-2.96C158.06,196.15,157.02,196,155.86,196.89z"/>
			<path class="st2" d="M159.73,190.67l1.69-1.69l8.26,8.27l-1.69,1.69L159.73,190.67z"/>
			<path class="st2" d="M166.43,186.65l-2.03,2.61l-1.74-1.35l5.54-7.1l1.74,1.35l-2.03,2.61l7.47,5.82l-1.47,1.88L166.43,186.65z"
				/>
			<path class="st2" d="M177.82,178.91l3.65,1.96l-1.13,2.11l-3.68-1.98l-8.52-0.04l1.2-2.24l5.88,0.03l-3.27-4.9l1.11-2.07
				L177.82,178.91z"/>
		</g>
	</g>
	<g>
		<g>
			<g>
				<path class="st5" d="M589.09,86.88c8.28,0,15,6.72,15,15c0,8.29-6.72,15-15.01,15c-8.29,0-15-6.73-15-15.01
					C574.1,93.59,580.81,86.88,589.09,86.88z M589.08,89.18c-7.03,0.03-12.68,5.68-12.68,12.69c0,7.04,5.68,12.69,12.69,12.69
					c7.03,0,12.68-5.68,12.68-12.69C601.78,94.84,596.1,89.2,589.08,89.18z"/>
				<path class="st5" d="M592.92,103.94c0.65,1.62,1.29,3.23,1.94,4.85c-0.05,0-0.09,0.01-0.13,0.01c-0.68,0-1.37,0-2.05,0
					c-0.09,0-0.14-0.02-0.17-0.12c-0.58-1.47-1.17-2.93-1.75-4.39c-0.01-0.04-0.03-0.07-0.05-0.11c-1.3,0-2.6,0-3.91,0
					c0,1.53,0,3.07,0,4.61c-0.78,0-1.54,0-2.31,0c0-4.61,0-9.22,0-13.84c0.04,0,0.08,0,0.12,0c2.27,0,4.53,0,6.8,0
					c1.1,0,2.09,0.33,2.94,1.03c0.81,0.66,1.32,1.51,1.55,2.52c0.14,0.61,0.15,1.22,0.06,1.83c-0.13,0.81-0.45,1.54-0.96,2.18
					c-0.51,0.63-1.15,1.08-1.9,1.37C593.03,103.9,592.98,103.92,592.92,103.94z M586.79,101.87c0.02,0,0.04,0.01,0.05,0.01
					c1.52,0,3.04,0,4.56,0c0.58,0,1.11-0.17,1.56-0.57c0.5-0.45,0.74-1.02,0.75-1.68c0.01-0.61-0.16-1.16-0.58-1.62
					c-0.48-0.53-1.1-0.74-1.79-0.74c-1.48,0-2.95,0-4.43,0c-0.04,0-0.07,0-0.11,0.01C586.79,98.81,586.79,100.34,586.79,101.87z"/>
			</g>
		</g>
		<g>
			<g>
				<g>
					<g>
						<path class="st5" d="M219.49,116.96c0-0.5-0.16-0.91-0.48-1.22c-0.32-0.32-1.15-0.55-2.5-0.69v-1.28h35.35
							c4.9,0,9.16,0.71,12.78,2.13c3.62,1.42,6.6,3.39,8.94,5.91c2.34,2.52,4.1,5.48,5.27,8.89c1.17,3.41,1.76,7.1,1.76,11.07
							c0,3.62-0.62,7.12-1.86,10.49c-1.24,3.37-3.12,6.35-5.64,8.94c-2.52,2.59-5.64,4.67-9.37,6.23
							c-3.73,1.56-8.08,2.34-13.04,2.34h-34.18v-1.28c1.35-0.14,2.18-0.37,2.5-0.69c0.32-0.32,0.48-0.73,0.48-1.22V116.96z
							 M248.98,157.21c5.61,0,9.65-1.44,12.14-4.31c2.48-2.87,3.73-6.58,3.73-11.13c0-4.54-1.24-8.25-3.73-11.13
							c-2.49-2.87-6.53-4.31-12.14-4.31h-13.52v30.88H248.98z"/>
						<path class="st5" d="M335.33,149.33c-0.14-0.71-0.44-1.29-0.91-1.76c-0.46-0.46-1.22-0.69-2.29-0.69h-19.8v9.9h34.18
							c0.57,0,0.99-0.19,1.28-0.59c0.28-0.39,0.5-1.26,0.64-2.61h1.28v18.21h-1.28c-0.14-0.92-0.36-1.49-0.64-1.7
							c-0.28-0.21-0.71-0.32-1.28-0.32h-53.13v-1.28c1.35-0.14,2.18-0.37,2.5-0.69c0.32-0.32,0.48-0.73,0.48-1.22v-49.62
							c0-0.5-0.16-0.91-0.48-1.22c-0.32-0.32-1.15-0.55-2.5-0.69v-1.28h53.13c0.57,0,0.99-0.19,1.28-0.59
							c0.28-0.39,0.5-1.19,0.64-2.4h1.28v18.53h-1.28c-0.14-1.21-0.36-2-0.64-2.4c-0.28-0.39-0.71-0.59-1.28-0.59h-34.18v8.84h19.8
							c1.06,0,1.83-0.23,2.29-0.69c0.46-0.46,0.76-1.05,0.91-1.76h1.28v16.61H335.33z"/>
						<path class="st5" d="M414.87,168.49c1.35-0.14,2.18-0.37,2.5-0.69c0.32-0.32,0.48-0.73,0.48-1.22V127.4l-0.21-0.21
							l-18.95,41.31l-18.74-41.74h-0.21v39.82c0,0.5,0.16,0.91,0.48,1.22c0.32,0.32,1.15,0.55,2.5,0.69v1.28h-18.74v-1.28
							c1.35-0.14,2.18-0.37,2.5-0.69c0.32-0.32,0.48-0.73,0.48-1.22v-49.62c0-0.5-0.16-0.91-0.48-1.22
							c-0.32-0.32-1.15-0.55-2.5-0.69v-1.28h27.79v1.28c-1.7,0.07-2.56,0.71-2.56,1.92c0,0.07,0.21,0.64,0.64,1.7
							c0.43,1.06,0.97,2.38,1.65,3.94c0.67,1.56,1.42,3.25,2.24,5.06c0.82,1.81,1.6,3.55,2.34,5.22c0.75,1.67,1.4,3.14,1.97,4.42
							c0.57,1.28,0.96,2.13,1.17,2.56c1.21-2.7,2.45-5.32,3.73-7.88c1.28-2.56,2.43-4.9,3.46-7.03c1.03-2.13,1.86-3.9,2.5-5.32
							c0.64-1.42,0.96-2.31,0.96-2.66c0-1.21-0.85-1.85-2.56-1.92v-1.28h28.85v1.28c-1.35,0.14-2.18,0.37-2.5,0.69
							c-0.32,0.32-0.48,0.73-0.48,1.22v49.62c0,0.5,0.16,0.91,0.48,1.22c0.32,0.32,1.15,0.55,2.5,0.69v1.28h-21.29V168.49z"/>
						<path class="st5" d="M457.77,148.16c-0.14,0.43-0.21,1.17-0.21,2.24c0,0.71,0.66,1.51,1.97,2.4c1.31,0.89,3.02,1.72,5.11,2.5
							c2.09,0.78,4.49,1.44,7.19,1.97c2.7,0.53,5.43,0.8,8.2,0.8c5.32,0,9.23-0.62,11.71-1.86c2.48-1.24,3.73-3.03,3.73-5.38
							c0-1.28-1.08-2.18-3.25-2.72c-2.17-0.53-4.88-0.96-8.15-1.28c-3.27-0.32-6.78-0.67-10.54-1.06c-3.76-0.39-7.28-1.1-10.54-2.13
							c-3.27-1.03-5.98-2.52-8.15-4.47c-2.17-1.95-3.25-4.63-3.25-8.04c0-2.7,0.62-5.15,1.86-7.35c1.24-2.2,2.98-4.08,5.22-5.64
							c2.24-1.56,4.95-2.78,8.15-3.67c3.19-0.89,6.74-1.33,10.65-1.33c3.62,0,6.99,0.23,10.12,0.69c3.12,0.46,5.89,0.98,8.3,1.54
							c2.41,0.57,4.44,1.08,6.07,1.54c1.63,0.46,2.8,0.69,3.51,0.69c0.71,0,1.28-0.16,1.7-0.48c0.43-0.32,0.82-0.69,1.17-1.12
							l1.17,0.43l-7.35,14.8l-1.28-0.64v-1.17c0-0.64-0.69-1.29-2.08-1.97c-1.38-0.67-3.14-1.28-5.27-1.81
							c-2.13-0.53-4.51-0.97-7.13-1.33c-2.63-0.35-5.18-0.53-7.67-0.53c-4.61,0-7.84,0.53-9.69,1.6c-1.85,1.06-2.77,2.2-2.77,3.41
							c0,1.21,0.64,2.11,1.92,2.72c1.28,0.6,2.94,1.05,5,1.33c2.06,0.28,4.4,0.52,7.03,0.69c2.63,0.18,5.32,0.44,8.09,0.8
							c2.77,0.36,5.47,0.85,8.09,1.49c2.63,0.64,4.97,1.58,7.03,2.82c2.06,1.24,3.73,2.87,5,4.9c1.28,2.02,1.92,4.56,1.92,7.61
							c0,2.34-0.48,4.65-1.44,6.92c-0.96,2.27-2.59,4.31-4.9,6.12c-2.31,1.81-5.4,3.25-9.26,4.31c-3.87,1.06-8.68,1.6-14.43,1.6
							c-4.47,0-8.32-0.21-11.55-0.64c-3.23-0.43-5.98-0.94-8.25-1.54c-2.27-0.6-4.06-1.15-5.38-1.65c-1.31-0.5-2.29-0.75-2.93-0.75
							c-0.43,0-0.8,0.14-1.12,0.43c-0.32,0.28-0.66,0.6-1.01,0.96l-1.28-0.32l7.88-18.95L457.77,148.16z"/>
						<path class="st5" d="M536.78,167.43c0,0.36,0.12,0.62,0.37,0.8c0.25,0.18,0.76,0.27,1.54,0.27v1.28h-18.85v-1.28
							c0.78-0.14,1.35-0.37,1.7-0.69c0.35-0.32,0.71-0.91,1.06-1.76c0.14-0.35,0.5-1.31,1.06-2.87c0.57-1.56,1.31-3.53,2.24-5.91
							c0.92-2.38,1.95-5.02,3.09-7.93c1.13-2.91,2.27-5.87,3.41-8.89c1.13-3.02,2.25-5.96,3.35-8.84c1.1-2.87,2.08-5.45,2.93-7.72
							c0.85-2.27,1.54-4.12,2.08-5.54c0.53-1.42,0.8-2.16,0.8-2.24c0-0.35-0.23-0.6-0.69-0.75c-0.46-0.14-0.94-0.25-1.44-0.32v-1.28
							h27.79v1.28c-0.57,0.07-1.03,0.18-1.38,0.32c-0.36,0.14-0.53,0.5-0.53,1.06c0,0.14,0.34,1.06,1.01,2.77
							c0.67,1.7,1.54,3.92,2.61,6.65c1.06,2.73,2.29,5.82,3.67,9.26c1.38,3.44,2.82,6.96,4.31,10.54c1.49,3.59,2.93,7.08,4.31,10.49
							c1.38,3.41,2.64,6.46,3.78,9.16c0.57,1.28,1.05,2.13,1.44,2.56c0.39,0.43,0.9,0.64,1.54,0.64v1.28h-20.98v-1.28
							c1.35-0.07,2.02-0.5,2.02-1.28c0-0.07-0.18-0.55-0.53-1.44c-0.36-0.89-0.75-1.88-1.17-2.98c-0.43-1.1-0.84-2.15-1.22-3.14
							c-0.39-0.99-0.62-1.67-0.69-2.02h-25.23c-0.71,1.92-1.28,3.48-1.7,4.68c-0.43,1.21-0.76,2.17-1.01,2.87
							c-0.25,0.71-0.43,1.22-0.53,1.54C536.83,167.06,536.78,167.29,536.78,167.43z M562.65,149.12l-10.33-25.34l-9.48,25.34H562.65
							z"/>
					</g>
				</g>
			</g>
		</g>
		<g>
			<path class="st5" d="M237.03,195.58v8.38c-1.1,0.79-2.27,1.38-3.51,1.77s-2.61,0.59-4.09,0.59c-1.76,0-3.34-0.27-4.75-0.82
				s-2.62-1.3-3.62-2.29c-1-0.98-1.77-2.16-2.31-3.53c-0.54-1.37-0.81-2.88-0.81-4.52c0-1.67,0.26-3.18,0.78-4.56
				c0.52-1.37,1.27-2.55,2.23-3.53c0.96-0.98,2.14-1.74,3.52-2.28s2.93-0.81,4.63-0.81c0.86,0,1.67,0.06,2.41,0.19
				s1.43,0.31,2.06,0.55c0.63,0.24,1.21,0.53,1.75,0.87c0.54,0.34,1.04,0.72,1.51,1.15l-0.84,1.34c-0.13,0.2-0.3,0.33-0.51,0.39
				c-0.21,0.06-0.44,0.01-0.69-0.14c-0.24-0.14-0.52-0.31-0.84-0.52s-0.7-0.4-1.15-0.59c-0.45-0.19-0.99-0.35-1.6-0.48
				c-0.61-0.13-1.34-0.2-2.19-0.2c-1.23,0-2.34,0.2-3.34,0.6c-1,0.4-1.84,0.97-2.54,1.72c-0.7,0.75-1.24,1.65-1.61,2.71
				c-0.38,1.06-0.56,2.25-0.56,3.57c0,1.37,0.2,2.6,0.59,3.68s0.95,2,1.68,2.76c0.73,0.76,1.61,1.33,2.64,1.73
				c1.04,0.4,2.2,0.59,3.49,0.59c1.02,0,1.92-0.11,2.7-0.34s1.56-0.54,2.31-0.95v-4.8h-3.4c-0.19,0-0.35-0.06-0.46-0.17
				c-0.12-0.11-0.18-0.25-0.18-0.41v-1.68H237.03z"/>
			<path class="st5" d="M281.17,203.73c0.9,0,1.71-0.15,2.42-0.46s1.31-0.73,1.81-1.28c0.49-0.55,0.87-1.2,1.13-1.96
				c0.26-0.76,0.39-1.6,0.39-2.51v-13.27h2.94v13.27c0,1.26-0.2,2.43-0.6,3.5c-0.4,1.08-0.98,2.01-1.72,2.79
				c-0.75,0.79-1.66,1.4-2.73,1.85c-1.08,0.45-2.29,0.67-3.63,0.67c-1.34,0-2.55-0.22-3.63-0.67c-1.08-0.45-1.99-1.06-2.74-1.85
				c-0.75-0.79-1.33-1.72-1.73-2.79s-0.6-2.24-0.6-3.5v-13.27h2.94v13.25c0,0.91,0.13,1.75,0.39,2.51s0.63,1.42,1.13,1.97
				c0.49,0.55,1.1,0.98,1.81,1.29C279.46,203.58,280.27,203.73,281.17,203.73z M279.67,180.7c0,0.22-0.05,0.43-0.14,0.63
				c-0.09,0.2-0.22,0.37-0.37,0.53c-0.16,0.15-0.34,0.27-0.55,0.36c-0.21,0.09-0.42,0.13-0.65,0.13c-0.21,0-0.42-0.04-0.62-0.13
				c-0.2-0.09-0.37-0.21-0.53-0.36s-0.27-0.33-0.37-0.53c-0.09-0.2-0.14-0.41-0.14-0.63c0-0.23,0.05-0.45,0.14-0.66
				c0.09-0.21,0.21-0.39,0.37-0.54s0.33-0.27,0.53-0.37c0.2-0.09,0.4-0.14,0.62-0.14c0.22,0,0.44,0.05,0.65,0.14
				c0.21,0.09,0.39,0.21,0.55,0.37c0.16,0.15,0.28,0.33,0.37,0.54C279.62,180.24,279.67,180.47,279.67,180.7z M286.03,180.7
				c0,0.22-0.05,0.43-0.14,0.63c-0.09,0.2-0.21,0.37-0.37,0.53s-0.33,0.27-0.53,0.36c-0.2,0.09-0.42,0.13-0.64,0.13
				c-0.23,0-0.45-0.04-0.65-0.13c-0.2-0.09-0.38-0.21-0.53-0.36s-0.27-0.33-0.36-0.53c-0.09-0.2-0.13-0.41-0.13-0.63
				c0-0.23,0.04-0.45,0.13-0.66c0.09-0.21,0.21-0.39,0.36-0.54s0.33-0.27,0.53-0.37c0.2-0.09,0.42-0.14,0.65-0.14
				c0.22,0,0.44,0.05,0.64,0.14c0.2,0.09,0.38,0.21,0.53,0.37s0.27,0.33,0.37,0.54C285.99,180.24,286.03,180.47,286.03,180.7z"/>
			<path class="st5" d="M344.11,184.25l-8.9,21.83h-2.65l-8.9-21.83h2.36c0.26,0,0.48,0.07,0.64,0.2c0.16,0.13,0.28,0.3,0.37,0.5
				l6.15,15.4c0.13,0.34,0.26,0.72,0.39,1.13s0.24,0.83,0.34,1.28c0.1-0.45,0.21-0.87,0.32-1.28c0.11-0.41,0.23-0.78,0.37-1.13
				l6.14-15.4c0.06-0.17,0.18-0.33,0.36-0.48c0.18-0.15,0.39-0.22,0.65-0.22H344.11z"/>
			<path class="st5" d="M391.65,203.67l-0.02,2.41h-13.45v-21.83h13.45v2.41h-10.5v7.25h8.5v2.32h-8.5v7.45H391.65z"/>
			<path class="st5" d="M444.67,184.25v21.83h-1.48c-0.23,0-0.43-0.04-0.59-0.12c-0.16-0.08-0.31-0.22-0.46-0.41l-12.63-16.45
				c0.02,0.25,0.04,0.5,0.05,0.75c0.01,0.24,0.02,0.47,0.02,0.69v15.55h-2.59v-21.83h1.52c0.13,0,0.24,0.01,0.34,0.02
				s0.17,0.04,0.24,0.08c0.07,0.04,0.14,0.09,0.21,0.15c0.07,0.07,0.15,0.15,0.23,0.25l12.63,16.44c-0.02-0.26-0.04-0.52-0.05-0.77
				s-0.02-0.49-0.02-0.71v-15.46H444.67z"/>
			<path class="st5" d="M493.83,203.6v2.48h-12.39v-21.83h2.94v19.35H493.83z"/>
			<path class="st5" d="M531.65,180.38c0,0.24-0.05,0.48-0.15,0.7c-0.1,0.22-0.24,0.42-0.41,0.59c-0.17,0.17-0.37,0.3-0.6,0.4
				s-0.47,0.15-0.72,0.15c-0.24,0-0.48-0.05-0.7-0.15c-0.22-0.1-0.42-0.24-0.59-0.4c-0.17-0.17-0.3-0.36-0.4-0.59
				s-0.14-0.46-0.14-0.7c0-0.25,0.05-0.49,0.14-0.72c0.1-0.22,0.23-0.42,0.4-0.59c0.17-0.17,0.36-0.31,0.59-0.41
				c0.22-0.1,0.46-0.15,0.7-0.15c0.25,0,0.5,0.05,0.72,0.15s0.43,0.24,0.6,0.41s0.31,0.37,0.41,0.59
				C531.6,179.89,531.65,180.13,531.65,180.38z M531.24,206.08h-2.96v-21.83h2.96V206.08z"/>
			<path class="st5" d="M570.96,193.82h1.11c0.39,0,0.7-0.05,0.93-0.14c0.23-0.1,0.45-0.26,0.64-0.5l7.27-8.23
				c0.2-0.26,0.42-0.45,0.64-0.55c0.22-0.1,0.5-0.15,0.82-0.15h2.5l-8.32,9.4c-0.2,0.24-0.4,0.44-0.59,0.6s-0.39,0.29-0.6,0.39
				c0.27,0.09,0.52,0.23,0.75,0.4c0.22,0.18,0.44,0.41,0.66,0.69l8.68,10.34h-2.56c-0.19,0-0.36-0.01-0.5-0.04s-0.26-0.07-0.36-0.12
				s-0.19-0.12-0.27-0.2s-0.15-0.17-0.22-0.27l-7.53-8.67c-0.2-0.25-0.42-0.43-0.66-0.54c-0.23-0.11-0.59-0.16-1.07-0.16h-1.34v9.99
				h-2.94v-21.83h2.94V193.82z"/>
		</g>
	</g>
</g>
</svg>
