<?xml version="1.0" encoding="utf-8"?>
<!-- Generator: Adobe Illustrator 26.0.1, SVG Export Plug-In . SVG Version: 6.00 Build 0)  -->
<svg version="1.1" id="katman_1" xmlns="http://www.w3.org/2000/svg" xmlns:xlink="http://www.w3.org/1999/xlink" x="0px" y="0px"
	 viewBox="0 0 816.11 253.33" style="enable-background:new 0 0 816.11 253.33;" xml:space="preserve">
<style type="text/css">
	.st0{fill:#122313;stroke:#F6E8B1;stroke-width:0.75;stroke-miterlimit:10;}
	.st1{fill:#0D0C0D;stroke:#F7E8B2;stroke-width:0.5;stroke-miterlimit:10;}
	.st2{fill:#F6E8B1;}
	.st3{clip-path:url(#SVGID_00000107562505720923202160000002650350176924718500_);}
	.st4{fill:none;stroke:#F6E8B1;stroke-miterlimit:10;}
	.st5{fill:#122313;}
</style>
<g>
	<g>
		<circle class="st0" cx="131.79" cy="131.53" r="57.26"/>
		<circle class="st1" cx="131.79" cy="131.53" r="43.57"/>
		<g>
			<polygon class="st2" points="181.86,127.96 182.84,131.09 186,131.09 183.44,133.02 184.42,136.15 181.86,134.22 179.3,136.15 
				180.28,133.02 177.72,131.09 180.88,131.09 			"/>
			<polygon class="st2" points="180.61,137.65 181.39,140.16 183.93,140.16 181.87,141.71 182.66,144.22 180.61,142.66 
				178.55,144.22 179.34,141.71 177.29,140.16 179.82,140.16 			"/>
			<polygon class="st2" points="180.61,119.24 181.39,121.75 183.93,121.75 181.87,123.3 182.66,125.81 180.61,124.26 
				178.55,125.81 179.34,123.3 177.29,121.75 179.82,121.75 			"/>
		</g>
		<g>
			<polygon class="st2" points="80.88,127.96 79.9,131.09 76.74,131.09 79.3,133.02 78.32,136.15 80.88,134.22 83.44,136.15 
				82.46,133.02 85.02,131.09 81.86,131.09 			"/>
			<polygon class="st2" points="82.13,137.65 81.35,140.16 78.81,140.16 80.86,141.71 80.08,144.22 82.13,142.66 84.18,144.22 
				83.4,141.71 85.45,140.16 82.92,140.16 			"/>
			<polygon class="st2" points="82.13,119.24 81.35,121.75 78.81,121.75 80.86,123.3 80.08,125.81 82.13,124.26 84.18,125.81 
				83.4,123.3 85.45,121.75 82.92,121.75 			"/>
		</g>
		<g>
			<g>
				<defs>
					<circle id="SVGID_1_" cx="131.7" cy="131.89" r="43.46"/>
				</defs>
				<clipPath id="SVGID_00000106835775130190312810000017297247792227894677_">
					<use xlink:href="#SVGID_1_"  style="overflow:visible;"/>
				</clipPath>
				<g style="clip-path:url(#SVGID_00000106835775130190312810000017297247792227894677_);">
					<path class="st2" d="M108.56,128.16c0.66-2.44,1.33-4.93,2.02-7.42c0.05-0.18,0.17-0.46,0.28-0.47
						c1.35-0.16,1.94-1.18,2.39-2.23c0.65-1.52,2.08-1.72,3.36-2.03c1.58-0.38,3.23-0.54,4.86-0.68c0.42-0.04,1.04,0.27,1.29,0.62
						c0.44,0.63,0.51,1.43-0.07,2.06c-0.82,0.9-1.69,1.74-2.54,2.61c-0.4,0.41-0.82,0.81-1.18,1.25c-0.62,0.76-0.92,1.68-0.43,2.54
						c0.72,1.25,0.36,2.49-0.06,3.57c-1.44,3.65-3.05,7.23-4.62,10.83c-0.37,0.86-0.72,1.75-1.25,2.51
						c-0.75,1.08-1.64,1.06-2.16-0.13c-0.53-1.21-0.88-2.54-1.04-3.86C109.03,134.34,108.84,131.32,108.56,128.16z M119,116.55
						c-0.88-0.06-1.6,0.61-1.63,1.48c-0.02,0.86,0.7,1.72,1.45,1.74c0.89,0.02,1.63-0.63,1.69-1.48
						C120.59,117.33,119.96,116.61,119,116.55z"/>
					<path class="st2" d="M152.46,122.22c-2.48-0.42-4.7-0.82-6.92-1.16c-5.38-0.84-10.78-1.26-16.23-1.04
						c-0.87,0.03-1.75,0.16-2.62,0.17c-1.39,0.02-1.88-0.71-1.39-2.03c0.38-1.03,0.7-2,0.1-3.1c-0.38-0.71,0.64-2.07,1.77-2.18
						c1.29-0.13,2.61,0,3.91,0.12c3.02,0.28,6.05,0.53,9.05,0.96c2.53,0.36,5.02,0.91,7.52,1.47c0.32,0.07,0.73,0.67,0.73,1.03
						c0.04,1.95,0.96,3.3,2.55,4.32C151.48,121.13,151.91,121.69,152.46,122.22z"/>
					<path class="st2" d="M157.38,126.11c-0.73,0.05-1.51,0.27-2.19,0.11c-4.73-1.09-9.47-0.92-14.19-0.14
						c-3.91,0.65-7.78,1.57-11.68,2.31c-1.18,0.22-2.41,0.31-3.62,0.32c-1.15,0.01-1.48-0.56-1.22-1.66
						c0.31-1.33,0.78-2.65,0.12-4.05c-0.3-0.63,0.23-1.12,0.82-1.29c0.57-0.17,1.19-0.25,1.79-0.27c7.79-0.23,15.52,0.31,23.11,2.18
						c2.09,0.52,4.16,1.12,6.23,1.7c0.3,0.08,0.58,0.26,0.87,0.4C157.4,125.85,157.39,125.98,157.38,126.11z"/>
					<path class="st2" d="M105.62,114.36c0.05-2.08,0.84-2.88,2.74-2.38c2.58,0.68,4.55-0.64,6.68-1.55
						c0.17-0.08,0.32-0.41,0.34-0.63c0.2-2.34,0.98-2.82,3.15-1.94c0.06,0.02,0.13-0.01,0.26-0.02c0.08-0.14,0.18-0.31,0.27-0.49
						c0.69-1.44,1.77-1.68,3-0.66c0.7,0.58,1.36,1.22,2.12,1.71c1.77,1.15,3.78,1.56,5.86,1.67c2.43,0.12,4.86,0.27,7.29,0.31
						c3.07,0.04,5.99,0.8,8.94,1.51c3.56,0.86,7.21,1.41,10.52,3.08c3.75,1.89,7.22,4.15,8.85,8.31c0.28,0.71,0.45,1.49,0.49,2.25
						c0.08,1.61-1.03,2.73-2.66,2.8c-0.57,0.03-1.15-0.02-1.72,0.02c-0.33,0.02-0.73,0.06-0.96,0.25c-1.32,1.11-2.91,1.2-4.4,0.86
						c-4.98-1.15-9.93-0.83-14.87,0.03c-3.67,0.64-7.31,1.5-10.96,2.27c-2.3,0.48-4.57,0.35-6.77-0.43
						c-0.76-0.27-1.03-0.02-1.28,0.61c-2.49,6.21-4.86,12.48-7.54,18.6c-1.6,3.65-1.93,7.46-2.38,11.3
						c-0.32,2.75-0.72,5.48-1.06,8.22c-0.47,3.74-0.9,7.49-1.37,11.24c-0.34,2.74-0.72,5.48-1.07,8.22
						c-0.26,2.01-0.58,4.01-0.72,6.02c-0.1,1.46-0.71,2.45-1.93,3.2c-2.04,1.25-4.05,2.56-6.07,3.84c-0.31,0.2-0.63,0.4-0.94,0.6
						c-1.16,0.76-2.47,0.15-2.65-1.24c-0.05-0.4-0.03-0.81-0.03-1.22c0-8.72,0-17.44,0-26.17c0-0.38,0-0.76,0-1.14
						c-0.1-0.02-0.19-0.04-0.29-0.06c-0.72,1.23-1.43,2.48-2.17,3.7c-0.26,0.43-0.52,0.89-0.88,1.21c-1.03,0.92-2.4,0.48-2.73-0.86
						c-0.13-0.52-0.18-1.06-0.18-1.6c-0.01-9.36,0.06-18.73-0.05-28.09c-0.03-2.31,0.57-4.24,1.71-6.18
						c4.11-7,8.11-14.07,12.18-21.1c0.35-0.6,0.38-1-0.16-1.48c-0.52-0.47-0.96-1.04-1.42-1.58c-0.58-0.68-0.76-1.45-0.33-2.25
						c0.45-0.84,1.2-1.14,2.14-0.91C104.89,114.28,105.22,114.31,105.62,114.36z M104.65,116.84c0.6,0.76,1.21,1.52,1.82,2.29
						c0.38,0.48,0.39,0.94,0.06,1.51c-2.04,3.51-4.04,7.04-6.06,10.56c-2.41,4.19-4.81,8.39-7.24,12.57
						c-0.86,1.48-0.77,1.23-0.77,2.83c-0.02,9.38-0.03,18.76-0.04,28.15c0,0.32,0,0.65,0.01,0.97c0,0.13,0.02,0.26,0.24,0.27
						c0.15-0.26,0.32-0.54,0.48-0.82c1.45-2.57,2.9-5.14,4.36-7.71c0.14-0.25,0.29-0.51,0.46-0.75c0.07-0.09,0.24-0.2,0.31-0.17
						c0.13,0.05,0.3,0.19,0.32,0.32c0.06,0.31,0.06,0.64,0.06,0.97c0,10.65,0,21.3,0,31.94c0,0.36,0,0.71,0.01,1.07
						c0,0.12,0.05,0.23,0.09,0.43c0.22-0.12,0.4-0.19,0.55-0.29c2.13-1.37,4.24-2.76,6.38-4.12c0.43-0.27,0.59-0.61,0.65-1.1
						c0.25-2.26,0.55-4.51,0.83-6.76c0.37-2.93,0.73-5.86,1.1-8.79c0.35-2.8,0.69-5.6,1.04-8.41c0.36-2.87,0.72-5.73,1.08-8.6
						c0.35-2.83,0.7-5.67,1.05-8.5c0.07-0.58,0.24-1.14,0.46-1.68c2.17-5.25,4.32-10.5,6.48-15.76c1.05-2.55,2.09-5.1,3.15-7.65
						c0.13-0.32,0.18-0.7,0.54-0.9c0.28,0.09,0.56,0.2,0.84,0.28c1.16,0.32,2.3,0.67,3.47,0.95c0.72,0.17,1.46,0.3,2.22,0.13
						c0.57-0.13,1.14-0.23,1.72-0.35c2.7-0.55,5.36-1.31,8.09-1.74c2.89-0.45,5.76-0.95,8.68-1.14c0.91-0.06,1.81-0.18,2.71-0.23
						c0.42-0.03,0.86-0.03,1.26,0.07c1.2,0.3,2.43,0.4,3.65,0.58c0.93,0.14,1.87,0.24,2.8,0.33c0.79,0.08,1.56,0,2.17-0.6
						c0.37-0.37,0.84-0.46,1.34-0.46c0.45,0,0.91,0.04,1.36-0.02c0.48-0.07,0.95-0.2,1.4-0.36c0.35-0.13,0.43-0.35,0.35-0.7
						c-0.07-0.32-0.17-0.63-0.27-0.94c-0.64-1.93-1.78-3.52-3.29-4.86c-1.2-1.06-2.54-1.91-3.98-2.6c-1.97-0.93-3.99-1.73-6.12-2.21
						c-0.66-0.15-1.32-0.33-1.99-0.48c-2.19-0.48-4.37-0.97-6.57-1.41c-1.53-0.31-3.09-0.35-4.65-0.43
						c-2.5-0.14-4.99-0.25-7.49-0.37c-1.01-0.05-2-0.21-2.98-0.46c-2.1-0.56-4.04-1.41-5.55-3.05c-0.1-0.11-0.25-0.18-0.48-0.34
						c0.08,0.64,0.15,1.15,0.22,1.65c0.11,0.83-0.18,1.07-0.99,0.79c-0.28-0.09-0.54-0.22-0.81-0.33c-0.41-0.19-0.82-0.39-1.24-0.57
						c-0.13-0.05-0.28-0.05-0.46-0.07c0,0.2-0.01,0.33,0,0.46c0.04,0.88-0.29,1.45-1.16,1.8c-1.26,0.51-2.51,1.08-3.7,1.74
						c-0.98,0.54-1.97,0.59-3.01,0.43c-0.26-0.04-0.51-0.09-0.77-0.11c-0.31-0.02-0.63-0.14-1.01,0.02c0,0.42,0.02,0.83-0.01,1.25
						c-0.02,0.41-0.01,0.84-0.3,1.21c-1.07-0.1-2.11-0.34-3.29-0.33C104.41,116.49,104.52,116.67,104.65,116.84z"/>
				</g>
			</g>
			<g>
				<g>
					<line class="st4" x1="111.26" y1="164.89" x2="175.42" y2="131.45"/>
					<line class="st4" x1="110.96" y1="169.63" x2="175.09" y2="136.63"/>
				</g>
			</g>
			<path class="st2" d="M141.34,154.82c-0.06-0.01-0.11-0.01-0.17-0.02c-0.2-0.02-0.39-0.04-0.57-0.05
				c-0.18-0.01-0.36-0.02-0.52-0.02c-0.16,0-0.32,0-0.46,0.01c-0.14,0.01-0.27,0.02-0.39,0.03c-0.24,0.01-0.42,0.06-0.55,0.07
				c-0.13,0.02-0.19,0.03-0.19,0.03l0.14,0.65c0,0,0.06-0.01,0.17-0.03c0.12-0.02,0.28-0.07,0.5-0.09c0.11-0.01,0.23-0.03,0.36-0.04
				c0.13-0.01,0.28-0.01,0.43-0.02c0.15-0.01,0.32-0.01,0.49,0c0.17,0,0.36,0.01,0.55,0.02c0.19,0.01,0.39,0.03,0.59,0.05
				c0.21,0.02,0.42,0.05,0.64,0.09c0.22,0.03,0.44,0.07,0.67,0.12c0.23,0.04,0.46,0.09,0.69,0.15c0.94,0.22,1.93,0.52,2.9,0.88
				c1.95,0.7,3.83,1.59,5.21,2.3c1.38,0.71,2.27,1.25,2.27,1.25s-0.9-0.51-2.31-1.19c-1.4-0.67-3.31-1.5-5.28-2.14
				c-0.98-0.32-1.98-0.59-2.93-0.79c-0.24-0.05-0.47-0.09-0.7-0.13c-0.23-0.04-0.45-0.07-0.67-0.1c-0.22-0.03-0.43-0.05-0.64-0.07
				c-0.17-0.02-0.34-0.03-0.5-0.03c0.15,6.89,6.6,5.29,10.71,4.91c1.9-0.18,3.09,0.01,3.09,0.01S147.71,147.54,141.34,154.82z"/>
			<path class="st2" d="M133.41,152.5c-0.04,0.06-0.08,0.12-0.12,0.18c-0.14,0.21-0.29,0.4-0.44,0.58
				c-0.14,0.18-0.28,0.36-0.42,0.51c-0.14,0.16-0.27,0.3-0.39,0.44c-0.13,0.13-0.25,0.25-0.36,0.35c-0.21,0.22-0.41,0.36-0.53,0.47
				c-0.13,0.11-0.19,0.16-0.19,0.16l-0.5-0.62c0,0,0.06-0.05,0.18-0.14c0.11-0.1,0.3-0.22,0.5-0.41c0.1-0.09,0.22-0.2,0.34-0.31
				c0.12-0.12,0.25-0.25,0.38-0.39c0.14-0.14,0.27-0.3,0.42-0.47c0.15-0.17,0.29-0.35,0.44-0.54c0.15-0.19,0.3-0.39,0.45-0.61
				c0.15-0.21,0.3-0.44,0.45-0.67c0.15-0.23,0.3-0.47,0.45-0.73c0.15-0.25,0.3-0.51,0.44-0.78c0.58-1.06,1.12-2.23,1.6-3.42
				c0.97-2.38,1.71-4.83,2.18-6.68c0.48-1.85,0.72-3.1,0.72-3.1s-0.27,1.24-0.81,3.08c-0.54,1.84-1.35,4.27-2.39,6.63
				c-0.52,1.18-1.1,2.33-1.71,3.38c-0.15,0.26-0.3,0.52-0.46,0.76c-0.15,0.25-0.31,0.49-0.47,0.72c-0.15,0.23-0.31,0.45-0.47,0.66
				c-0.13,0.18-0.26,0.34-0.39,0.5c-6.4-5.23,0.52-10.22,4.33-13.86c1.77-1.69,2.59-2.96,2.59-2.96S145.65,151.79,133.41,152.5z"/>
		</g>
		<g>
			<path class="st2" d="M81.82,108.04l1.74-3.16c1.25-2.28,3.74-2.95,6.25-1.57c2.51,1.37,3.29,3.83,2.04,6.11l-1.74,3.16
				L81.82,108.04z M90.23,108.63c0.76-1.38,0.27-2.83-1.31-3.69c-1.59-0.87-3.07-0.5-3.82,0.88l-0.81,1.47l5.14,2.81L90.23,108.63z"
				/>
			<path class="st2" d="M97.49,98.56l1.35,1.12l-3.93,4.73l-7.27-6.04l3.84-4.62l1.35,1.12l-2.67,3.21l1.58,1.31l2.36-2.84
				l1.31,1.09l-2.36,2.84l1.68,1.4L97.49,98.56z"/>
			<path class="st2" d="M105.55,94l-3.53-4.44l1.07,5.11l-0.65,0.52l-4.65-2.12l3.44,4.35l-1.35,1.07l-5.87-7.4l1.19-0.95l5.98,2.75
				l-1.35-6.42l1.18-0.94l5.88,7.39L105.55,94z"/>
			<path class="st2" d="M107.66,91.47l-0.19-1.75c0.86,0.21,1.93,0.12,2.78-0.31c0.97-0.49,1.17-1.08,0.91-1.6
				c-0.8-1.58-4.37,1.6-5.96-1.53c-0.73-1.43-0.36-3.12,1.65-4.14c0.89-0.45,1.93-0.66,2.84-0.51l0.25,1.74
				c-0.88-0.11-1.67,0.02-2.3,0.34c-0.97,0.49-1.12,1.12-0.86,1.65c0.79,1.55,4.36-1.62,5.93,1.48c0.72,1.41,0.34,3.11-1.68,4.14
				C109.92,91.54,108.58,91.72,107.66,91.47z"/>
			<path class="st2" d="M119.75,85.31l-3.54,1.06l-0.1,2.14l-1.81,0.54L115,78.99l1.74-0.52l6.12,8.02l-1.85,0.56L119.75,85.31z
				 M118.72,83.89l-2.24-3.1l-0.17,3.82L118.72,83.89z"/>
			<path class="st2" d="M126.71,85.07l0.57-1.67c0.69,0.56,1.7,0.93,2.65,0.9c1.09-0.04,1.52-0.48,1.5-1.06
				c-0.06-1.77-4.63-0.4-4.74-3.91c-0.05-1.6,0.99-2.98,3.25-3.05c1-0.03,2.03,0.22,2.78,0.75l-0.51,1.68
				c-0.75-0.47-1.52-0.69-2.22-0.67c-1.09,0.04-1.49,0.54-1.47,1.13c0.06,1.74,4.63,0.39,4.74,3.85c0.05,1.58-1.01,2.96-3.28,3.04
				C128.72,86.1,127.44,85.7,126.71,85.07z"/>
			<path class="st2" d="M141.09,84.98l-0.24,1.74l-6.1-0.83l1.28-9.36l5.95,0.81l-0.24,1.74l-4.14-0.56l-0.28,2.03l3.66,0.5
				l-0.23,1.68l-3.66-0.5l-0.3,2.16L141.09,84.98z"/>
			<path class="st2" d="M143.37,82.44c0.88-2.71,3.25-4.08,5.61-3.32c1.3,0.42,2.21,1.34,2.59,2.6l-1.52,0.87
				c-0.28-0.86-0.8-1.42-1.56-1.67c-1.41-0.46-2.8,0.4-3.35,2.09c-0.55,1.7,0.07,3.2,1.49,3.66c0.76,0.24,1.51,0.09,2.24-0.45
				l0.73,1.6c-1.05,0.81-2.32,1.02-3.64,0.59C143.62,87.66,142.5,85.15,143.37,82.44z"/>
			<path class="st2" d="M152.3,86.16l2.56-4.64l1.61,0.89l-2.52,4.56c-0.87,1.57-0.65,2.54,0.32,3.08c0.98,0.54,1.91,0.21,2.78-1.37
				l2.52-4.56l1.59,0.88l-2.56,4.64c-1.34,2.44-3.26,3.14-5.24,2.05C151.38,90.59,150.95,88.59,152.3,86.16z"/>
			<path class="st2" d="M162.01,97.65l0.52-3l-0.07-0.06l-1.22-1.03l-1.7,2.02l-1.41-1.18l6.09-7.24l2.63,2.21
				c1.62,1.36,1.8,3.22,0.43,4.84c-0.91,1.09-2.04,1.49-3.17,1.23l-0.59,3.47L162.01,97.65z M165.63,90.66l-1.14-0.96l-2.12,2.52
				l1.14,0.96c0.86,0.72,1.7,0.61,2.36-0.17C166.53,92.22,166.49,91.39,165.63,90.66z"/>
			<path class="st2" d="M171.51,93.81l1.23,1.36l-7.02,6.32l-1.23-1.37L171.51,93.81z"/>
			<path class="st2" d="M174.38,100.1l-1.45-2.09l1.47-1.02l3.95,5.69l-1.47,1.02l-1.45-2.09l-6.3,4.39l-1.05-1.51L174.38,100.1z"/>
			<path class="st2" d="M175.71,110.94l-3.02,1.45l-0.8-1.66l3.04-1.46l4.15-5.4l0.85,1.76l-2.87,3.73l4.7,0.1l0.78,1.63
				L175.71,110.94z"/>
		</g>
		<g>
			<path class="st2" d="M90.48,149.49l1.41,3.35c1.02,2.42,0.07,4.77-2.47,5.83c-2.53,1.07-4.89,0.1-5.9-2.31l-1.42-3.36
				L90.48,149.49z M85.08,155.62c0.62,1.47,2.02,2.01,3.62,1.34s2.19-2.05,1.57-3.52l-0.66-1.56l-5.19,2.18L85.08,155.62z"/>
			<path class="st2" d="M91.99,167.37l-1.37,0.98l-3.61-5.05l7.37-5.28l3.52,4.93l-1.37,0.98l-2.45-3.43l-1.6,1.15l2.16,3.03
				l-1.33,0.95l-2.16-3.03l-1.7,1.22L91.99,167.37z"/>
			<path class="st2" d="M98.31,175.81l3.6-4.09l-4.74,1.8l-0.63-0.55l1.13-4.83l-3.53,4l-1.31-1.15l6.01-6.81l1.15,1.01l-1.49,6.21
				l5.95-2.28l1.14,1.01l-5.99,6.82L98.31,175.81z"/>
			<path class="st2" d="M102.72,177.92l1.32-1.07c0.32,0.82,1.01,1.65,1.84,2.12c0.96,0.54,1.55,0.39,1.82-0.09
				c0.83-1.48-3.81-2.74-2.16-5.68c0.75-1.35,2.34-1.93,4.32-0.81c0.88,0.49,1.64,1.23,2.03,2.06l-1.27,1.11
				c-0.42-0.78-0.97-1.36-1.59-1.71c-0.96-0.54-1.56-0.34-1.83,0.16c-0.81,1.46,3.81,2.73,2.19,5.64c-0.74,1.32-2.34,1.91-4.34,0.79
				C103.95,179.81,103.04,178.81,102.72,177.92z"/>
			<path class="st2" d="M116.52,183.03l-3.53-1.18l-1.29,1.62l-1.8-0.61l6.28-7.46l1.74,0.58l0.51,9.74l-1.85-0.62L116.52,183.03z
				 M116.47,181.33l-0.1-3.7l-2.31,2.89L116.47,181.33z"/>
			<path class="st2" d="M124.74,185.92l0.72-1.54c0.64,0.6,1.62,1.05,2.58,1.1c1.1,0.07,1.57-0.32,1.6-0.88
				c0.1-1.7-4.62-0.81-4.41-4.17c0.1-1.54,1.27-2.75,3.54-2.62c1.01,0.06,2.02,0.39,2.73,0.97l-0.67,1.56
				c-0.71-0.52-1.46-0.8-2.17-0.85c-1.1-0.07-1.55,0.37-1.58,0.94c-0.1,1.67,4.62,0.8,4.42,4.12c-0.09,1.51-1.28,2.74-3.56,2.6
				C126.66,187.09,125.41,186.58,124.74,185.92z"/>
			<path class="st2" d="M140.22,184.73l0.19,1.67l-6.17,0.7l-1.01-9.01l6.02-0.68l0.19,1.67l-4.19,0.47l0.22,1.96l3.7-0.42
				l0.18,1.62l-3.7,0.42l0.23,2.08L140.22,184.73z"/>
			<path class="st2" d="M141.74,181.57c-0.78-2.62,0.44-5.02,2.83-5.73c1.33-0.39,2.6-0.18,3.62,0.6l-0.79,1.53
				c-0.72-0.52-1.47-0.67-2.23-0.44c-1.44,0.43-2.12,1.87-1.63,3.51c0.49,1.64,1.85,2.48,3.29,2.05c0.77-0.23,1.31-0.77,1.63-1.6
				l1.49,0.85c-0.43,1.22-1.37,2.1-2.71,2.49C144.86,185.53,142.52,184.18,141.74,181.57z"/>
			<path class="st2" d="M151.19,179.09l-2.31-4.52l1.65-0.85l2.27,4.45c0.78,1.53,1.7,1.86,2.7,1.35c1.01-0.52,1.26-1.45,0.48-2.98
				l-2.27-4.45l1.63-0.84l2.31,4.52c1.21,2.38,0.68,4.31-1.34,5.35C154.28,182.16,152.4,181.47,151.19,179.09z"/>
			<path class="st2" d="M166.49,174.32l-2.76-1.07l-0.07,0.06l-1.28,0.98l1.53,2l-1.47,1.13l-5.51-7.2l2.75-2.11
				c1.7-1.3,3.53-1.12,4.77,0.5c0.83,1.08,0.95,2.24,0.43,3.28l3.2,1.22L166.49,174.32z M160.63,169.54l-1.2,0.92l1.92,2.51
				l1.2-0.92c0.9-0.69,0.99-1.51,0.39-2.29C162.34,168.96,161.53,168.85,160.63,169.54z"/>
			<path class="st2" d="M163.64,164.71l1.31-1.31l6.41,6.42l-1.31,1.31L163.64,164.71z"/>
			<path class="st2" d="M168.84,161.6l-1.58,2.02l-1.35-1.05l4.3-5.51l1.35,1.05l-1.58,2.02l5.8,4.52l-1.14,1.46L168.84,161.6z"/>
			<path class="st2" d="M177.68,155.59l2.83,1.52l-0.88,1.63l-2.86-1.54l-6.61-0.03l0.93-1.74l4.57,0.02l-2.54-3.8l0.86-1.6
				L177.68,155.59z"/>
		</g>
	</g>
</g>
<g>
	<g>
		<g>
			<g>
				<path class="st5" d="M203.39,122.23c0-0.27-0.09-0.49-0.26-0.66c-0.17-0.17-0.62-0.3-1.35-0.37v-0.69h19.13
					c2.65,0,4.96,0.38,6.92,1.15c1.96,0.77,3.57,1.84,4.84,3.2c1.27,1.36,2.22,2.97,2.85,4.81c0.63,1.84,0.95,3.84,0.95,5.99
					c0,1.96-0.34,3.85-1.01,5.68c-0.67,1.83-1.69,3.44-3.05,4.84c-1.36,1.4-3.05,2.53-5.07,3.37c-2.02,0.85-4.37,1.27-7.06,1.27
					h-18.5v-0.69c0.73-0.08,1.18-0.2,1.35-0.37c0.17-0.17,0.26-0.39,0.26-0.66V122.23z M219.35,144.01c3.03,0,5.22-0.78,6.57-2.33
					c1.34-1.56,2.02-3.56,2.02-6.02c0-2.46-0.67-4.47-2.02-6.02c-1.35-1.56-3.54-2.33-6.57-2.33h-7.32v16.71H219.35z"/>
				<path class="st5" d="M266.08,139.74c-0.08-0.38-0.24-0.7-0.49-0.95c-0.25-0.25-0.66-0.37-1.24-0.37h-10.72v5.36h18.5
					c0.31,0,0.54-0.11,0.69-0.32c0.15-0.21,0.27-0.68,0.35-1.41h0.69v9.85h-0.69c-0.08-0.5-0.19-0.81-0.35-0.92
					c-0.15-0.12-0.38-0.17-0.69-0.17h-28.76v-0.69c0.73-0.08,1.18-0.2,1.35-0.37c0.17-0.17,0.26-0.39,0.26-0.66v-26.85
					c0-0.27-0.09-0.49-0.26-0.66c-0.17-0.17-0.62-0.3-1.35-0.37v-0.69h28.76c0.31,0,0.54-0.11,0.69-0.32
					c0.15-0.21,0.27-0.64,0.35-1.3h0.69v10.03h-0.69c-0.08-0.65-0.19-1.08-0.35-1.3c-0.15-0.21-0.38-0.32-0.69-0.32h-18.5v4.78
					h10.72c0.58,0,0.99-0.12,1.24-0.37c0.25-0.25,0.41-0.57,0.49-0.95h0.69v8.99H266.08z"/>
				<path class="st5" d="M309.13,150.12c0.73-0.08,1.18-0.2,1.35-0.37c0.17-0.17,0.26-0.39,0.26-0.66v-21.21l-0.12-0.12
					l-10.26,22.36l-10.14-22.59h-0.12v21.55c0,0.27,0.09,0.49,0.26,0.66c0.17,0.17,0.62,0.3,1.35,0.37v0.69h-10.14v-0.69
					c0.73-0.08,1.18-0.2,1.35-0.37c0.17-0.17,0.26-0.39,0.26-0.66v-26.85c0-0.27-0.09-0.49-0.26-0.66c-0.17-0.17-0.62-0.3-1.35-0.37
					v-0.69h15.04v0.69c-0.92,0.04-1.38,0.38-1.38,1.04c0,0.04,0.12,0.35,0.35,0.92c0.23,0.58,0.53,1.29,0.89,2.13
					c0.36,0.85,0.77,1.76,1.21,2.74c0.44,0.98,0.86,1.92,1.27,2.82c0.4,0.9,0.76,1.7,1.07,2.39c0.31,0.69,0.52,1.15,0.63,1.38
					c0.65-1.46,1.33-2.88,2.02-4.26c0.69-1.38,1.32-2.65,1.87-3.8c0.56-1.15,1.01-2.11,1.35-2.88c0.35-0.77,0.52-1.25,0.52-1.44
					c0-0.65-0.46-1-1.38-1.04v-0.69h15.62v0.69c-0.73,0.08-1.18,0.2-1.35,0.37c-0.17,0.17-0.26,0.39-0.26,0.66v26.85
					c0,0.27,0.09,0.49,0.26,0.66c0.17,0.17,0.62,0.3,1.35,0.37v0.69h-11.53V150.12z"/>
				<path class="st5" d="M332.35,139.11c-0.08,0.23-0.12,0.63-0.12,1.21c0,0.38,0.35,0.82,1.07,1.3c0.71,0.48,1.63,0.93,2.77,1.35
					c1.13,0.42,2.43,0.78,3.89,1.07c1.46,0.29,2.94,0.43,4.44,0.43c2.88,0,4.99-0.34,6.34-1.01c1.34-0.67,2.02-1.64,2.02-2.91
					c0-0.69-0.59-1.18-1.76-1.47c-1.17-0.29-2.64-0.52-4.41-0.69c-1.77-0.17-3.67-0.36-5.71-0.58c-2.04-0.21-3.94-0.6-5.71-1.15
					c-1.77-0.56-3.24-1.36-4.41-2.42c-1.17-1.06-1.76-2.51-1.76-4.35c0-1.46,0.34-2.79,1.01-3.98c0.67-1.19,1.61-2.21,2.82-3.05
					c1.21-0.84,2.68-1.51,4.41-1.99c1.73-0.48,3.65-0.72,5.76-0.72c1.96,0,3.78,0.13,5.47,0.37c1.69,0.25,3.19,0.53,4.49,0.84
					c1.31,0.31,2.4,0.59,3.28,0.84c0.88,0.25,1.52,0.37,1.9,0.37c0.38,0,0.69-0.09,0.92-0.26c0.23-0.17,0.44-0.37,0.63-0.61
					l0.63,0.23l-3.98,8.01l-0.69-0.35v-0.63c0-0.35-0.37-0.7-1.12-1.07c-0.75-0.36-1.7-0.69-2.85-0.98
					c-1.15-0.29-2.44-0.53-3.86-0.72c-1.42-0.19-2.8-0.29-4.15-0.29c-2.5,0-4.25,0.29-5.24,0.86c-1,0.58-1.5,1.19-1.5,1.84
					c0,0.65,0.35,1.14,1.04,1.47c0.69,0.33,1.59,0.57,2.71,0.72c1.11,0.15,2.38,0.28,3.8,0.37c1.42,0.1,2.88,0.24,4.38,0.43
					c1.5,0.19,2.96,0.46,4.38,0.81c1.42,0.35,2.69,0.86,3.8,1.53c1.11,0.67,2.02,1.56,2.71,2.65c0.69,1.09,1.04,2.47,1.04,4.12
					c0,1.27-0.26,2.52-0.78,3.75c-0.52,1.23-1.4,2.33-2.65,3.31c-1.25,0.98-2.92,1.76-5.01,2.33c-2.09,0.58-4.7,0.86-7.81,0.86
					c-2.42,0-4.5-0.12-6.25-0.35c-1.75-0.23-3.24-0.51-4.47-0.84c-1.23-0.33-2.2-0.62-2.91-0.89c-0.71-0.27-1.24-0.4-1.58-0.4
					c-0.23,0-0.43,0.08-0.61,0.23c-0.17,0.15-0.36,0.33-0.55,0.52l-0.69-0.17l4.26-10.26L332.35,139.11z"/>
				<path class="st5" d="M375.11,149.54c0,0.19,0.07,0.34,0.2,0.43c0.13,0.1,0.41,0.14,0.84,0.14v0.69h-10.2v-0.69
					c0.42-0.08,0.73-0.2,0.92-0.37c0.19-0.17,0.38-0.49,0.58-0.95c0.08-0.19,0.27-0.71,0.58-1.56c0.31-0.84,0.71-1.91,1.21-3.2
					c0.5-1.29,1.06-2.72,1.67-4.29c0.61-1.57,1.23-3.18,1.84-4.81c0.61-1.63,1.22-3.23,1.82-4.78c0.6-1.56,1.12-2.95,1.58-4.18
					c0.46-1.23,0.84-2.23,1.12-3c0.29-0.77,0.43-1.17,0.43-1.21c0-0.19-0.13-0.33-0.37-0.4c-0.25-0.08-0.51-0.13-0.78-0.17v-0.69
					h15.04v0.69c-0.31,0.04-0.56,0.1-0.75,0.17c-0.19,0.08-0.29,0.27-0.29,0.58c0,0.08,0.18,0.58,0.55,1.5
					c0.36,0.92,0.84,2.12,1.41,3.6c0.58,1.48,1.24,3.15,1.99,5.01c0.75,1.86,1.53,3.77,2.33,5.71c0.81,1.94,1.58,3.83,2.33,5.68
					c0.75,1.84,1.43,3.5,2.05,4.96c0.31,0.69,0.57,1.15,0.78,1.38c0.21,0.23,0.49,0.35,0.84,0.35v0.69h-11.35v-0.69
					c0.73-0.04,1.09-0.27,1.09-0.69c0-0.04-0.1-0.3-0.29-0.78c-0.19-0.48-0.4-1.02-0.63-1.61c-0.23-0.6-0.45-1.16-0.66-1.7
					c-0.21-0.54-0.34-0.9-0.37-1.09h-13.66c-0.38,1.04-0.69,1.88-0.92,2.54c-0.23,0.65-0.41,1.17-0.55,1.56
					c-0.14,0.38-0.23,0.66-0.29,0.84C375.14,149.34,375.11,149.46,375.11,149.54z M389.12,139.63l-5.59-13.72l-5.13,13.72H389.12z"
					/>
				<path class="st5" d="M445.42,139.8c-0.31,0-0.52,0.11-0.63,0.32c-0.12,0.21-0.19,0.49-0.23,0.84h-0.69v-8.07h0.69
					c0.08,0.69,0.36,1.04,0.86,1.04h17v0.69c-0.61,0.04-0.92,0.37-0.92,0.98v9.57c0,0.27,0.04,0.5,0.12,0.69
					c0.08,0.19,0.27,0.29,0.58,0.29h0.29v0.69c-5.23,2.77-11.41,4.15-18.56,4.15c-2.42,0-4.75-0.3-7-0.89
					c-2.25-0.6-4.24-1.53-5.96-2.79c-1.73-1.27-3.12-2.87-4.18-4.81c-1.06-1.94-1.58-4.22-1.58-6.83c0-2.61,0.53-4.89,1.58-6.83
					c1.06-1.94,2.45-3.55,4.18-4.84c1.73-1.29,3.72-2.25,5.96-2.88c2.25-0.63,4.58-0.95,7-0.95c0.96,0,1.81,0.02,2.54,0.06
					c0.73,0.04,1.44,0.12,2.13,0.23c0.69,0.12,1.4,0.26,2.13,0.43c0.73,0.17,1.59,0.39,2.59,0.66c0.96,0.27,1.84,0.59,2.65,0.95
					c0.81,0.37,1.33,0.55,1.56,0.55c0.31,0,0.58-0.15,0.81-0.46l0.69,0.23l-3.75,7.61l-0.69-0.4c0.08-0.23,0.12-0.44,0.12-0.63
					c0-0.27-0.33-0.57-0.98-0.89c-0.65-0.33-1.48-0.62-2.48-0.89c-1-0.27-2.12-0.5-3.37-0.69c-1.25-0.19-2.47-0.29-3.66-0.29
					c-1.38,0-2.7,0.18-3.95,0.55c-1.25,0.37-2.36,0.93-3.34,1.7c-0.98,0.77-1.76,1.72-2.33,2.85c-0.58,1.13-0.86,2.49-0.86,4.06
					c0,1.54,0.35,2.87,1.04,4.01c0.69,1.13,1.56,2.07,2.62,2.79c1.06,0.73,2.24,1.27,3.54,1.61c1.31,0.35,2.59,0.52,3.86,0.52
					c1.61,0,3.06-0.1,4.35-0.29c1.29-0.19,2.53-0.46,3.72-0.81v-3.8H445.42z"/>
				<path class="st5" d="M494.05,122.23c0-0.27-0.09-0.49-0.26-0.66c-0.17-0.17-0.62-0.3-1.35-0.37v-0.69h11.87v0.69
					c-0.73,0.08-1.18,0.2-1.35,0.37c-0.17,0.17-0.26,0.39-0.26,0.66v15.44c0,2.54-0.41,4.67-1.24,6.4c-0.83,1.73-1.96,3.11-3.4,4.15
					c-1.44,1.04-3.13,1.76-5.07,2.16c-1.94,0.4-4.01,0.61-6.19,0.61s-4.26-0.2-6.19-0.61c-1.94-0.4-3.63-1.12-5.07-2.16
					c-1.44-1.04-2.57-2.42-3.4-4.15c-0.83-1.73-1.24-3.86-1.24-6.4v-15.44c0-0.27-0.09-0.49-0.26-0.66
					c-0.17-0.17-0.62-0.3-1.35-0.37v-0.69h11.87v0.69c-0.73,0.08-1.18,0.2-1.35,0.37c-0.17,0.17-0.26,0.39-0.26,0.66v15.44
					c0,2.23,0.63,3.82,1.9,4.78c1.27,0.96,3.05,1.44,5.36,1.44c2.31,0,4.09-0.48,5.36-1.44c1.27-0.96,1.9-2.55,1.9-4.78V122.23z
					 M477.46,111.22h7.38v6.68h-7.38V111.22z M488.75,111.22h7.38v6.68h-7.38V111.22z"/>
				<path class="st5" d="M522.69,150.12c0.35-0.08,0.58-0.15,0.69-0.23c0.12-0.08,0.17-0.17,0.17-0.29c0-0.08-0.15-0.47-0.46-1.18
					c-0.31-0.71-0.7-1.64-1.18-2.79c-0.48-1.15-1.05-2.46-1.7-3.92c-0.65-1.46-1.32-2.98-1.99-4.55c-0.67-1.57-1.35-3.13-2.05-4.67
					c-0.69-1.54-1.33-2.96-1.9-4.26c-0.58-1.31-1.07-2.44-1.47-3.4c-0.4-0.96-0.68-1.63-0.84-2.02c-0.27-0.65-0.48-1.08-0.63-1.27
					c-0.15-0.19-0.38-0.31-0.69-0.35v-0.69h11.81v0.69c-0.46,0.04-0.77,0.12-0.92,0.23c-0.15,0.12-0.23,0.27-0.23,0.46
					c0,0.12,0.09,0.36,0.26,0.72c0.17,0.37,0.54,1.14,1.09,2.33c0.56,1.19,1.36,2.92,2.42,5.19c1.06,2.27,2.49,5.36,4.29,9.28
					c1.73-3.8,3.1-6.83,4.12-9.08c1.02-2.25,1.81-3.97,2.36-5.16c0.56-1.19,0.91-2.01,1.07-2.45c0.15-0.44,0.23-0.74,0.23-0.89
					c0-0.19-0.06-0.34-0.17-0.43c-0.12-0.1-0.35-0.16-0.69-0.2v-0.69h9.91v0.69c-0.23,0.08-0.41,0.15-0.55,0.23
					c-0.14,0.08-0.24,0.25-0.32,0.52c-0.08,0.23-0.31,0.79-0.69,1.67c-0.38,0.88-0.86,1.98-1.41,3.28
					c-0.56,1.31-1.17,2.76-1.84,4.35c-0.67,1.59-1.36,3.22-2.07,4.87c-0.71,1.65-1.4,3.27-2.07,4.84c-0.67,1.58-1.27,2.98-1.79,4.21
					c-0.52,1.23-0.93,2.25-1.24,3.05c-0.31,0.81-0.46,1.25-0.46,1.33c0,0.35,0.27,0.52,0.81,0.52v0.75h-11.87V150.12z"/>
				<path class="st5" d="M575.02,139.74c-0.08-0.38-0.24-0.7-0.49-0.95c-0.25-0.25-0.66-0.37-1.24-0.37h-10.72v5.36h18.5
					c0.31,0,0.54-0.11,0.69-0.32c0.15-0.21,0.27-0.68,0.35-1.41h0.69v9.85h-0.69c-0.08-0.5-0.19-0.81-0.35-0.92
					c-0.15-0.12-0.38-0.17-0.69-0.17h-28.76v-0.69c0.73-0.08,1.18-0.2,1.35-0.37c0.17-0.17,0.26-0.39,0.26-0.66v-26.85
					c0-0.27-0.09-0.49-0.26-0.66c-0.17-0.17-0.62-0.3-1.35-0.37v-0.69h28.76c0.31,0,0.54-0.11,0.69-0.32
					c0.15-0.21,0.27-0.64,0.35-1.3h0.69v10.03h-0.69c-0.08-0.65-0.19-1.08-0.35-1.3c-0.15-0.21-0.38-0.32-0.69-0.32h-18.5v4.78
					h10.72c0.58,0,0.99-0.12,1.24-0.37c0.25-0.25,0.41-0.57,0.49-0.95h0.69v8.99H575.02z"/>
				<path class="st5" d="M592.36,122.23c0-0.27-0.09-0.49-0.26-0.66c-0.17-0.17-0.62-0.3-1.35-0.37v-0.69h13.89v0.69
					c-0.65,0.04-1.09,0.13-1.3,0.26c-0.21,0.14-0.32,0.3-0.32,0.49c0,0.08,0.25,0.42,0.75,1.04c0.5,0.61,1.15,1.38,1.96,2.31
					c0.81,0.92,1.72,1.95,2.74,3.08c1.02,1.13,2.05,2.27,3.08,3.4c1.04,1.13,2.04,2.21,3,3.23c0.96,1.02,1.79,1.89,2.48,2.62v-15.39
					c0-0.65-0.4-1-1.21-1.04v-0.69h10.55v0.69c-0.73,0.08-1.18,0.2-1.35,0.37c-0.17,0.17-0.26,0.39-0.26,0.66v26.85
					c0,0.27,0.09,0.49,0.26,0.66c0.17,0.17,0.62,0.3,1.35,0.37v0.69h-10.95v-0.69c0.54,0,0.89-0.06,1.07-0.17
					c0.17-0.12,0.26-0.27,0.26-0.46c0-0.12-0.06-0.26-0.17-0.43c-0.12-0.17-0.37-0.47-0.75-0.89c-0.38-0.42-0.95-1.03-1.7-1.82
					c-0.75-0.79-1.74-1.84-2.97-3.17c-1.23-1.33-2.75-2.98-4.55-4.96c-1.81-1.98-3.98-4.39-6.51-7.23v18.09
					c0,0.27,0.09,0.49,0.26,0.66c0.17,0.17,0.62,0.3,1.35,0.37v0.69h-10.95v-0.69c0.73-0.08,1.18-0.2,1.35-0.37
					c0.17-0.17,0.26-0.39,0.26-0.66V122.23z"/>
				<path class="st5" d="M665.67,143.78c0.31,0,0.54-0.11,0.69-0.32c0.15-0.21,0.27-0.64,0.35-1.3h0.69v9.97h-0.69
					c-0.08-0.61-0.19-0.99-0.35-1.12c-0.15-0.14-0.38-0.2-0.69-0.2h-30.08v-0.69c0.73-0.08,1.18-0.2,1.35-0.37
					c0.17-0.17,0.26-0.39,0.26-0.66v-26.85c0-0.27-0.09-0.49-0.26-0.66c-0.17-0.17-0.62-0.3-1.35-0.37v-0.69h11.87v0.69
					c-0.73,0.08-1.18,0.2-1.35,0.37c-0.17,0.17-0.26,0.39-0.26,0.66v21.55H665.67z"/>
				<path class="st5" d="M674.66,150.12c0.73-0.08,1.18-0.2,1.35-0.37c0.17-0.17,0.26-0.39,0.26-0.66v-26.85
					c0-0.27-0.09-0.49-0.26-0.66c-0.17-0.17-0.62-0.3-1.35-0.37v-0.69h11.87v0.69c-0.73,0.08-1.18,0.2-1.35,0.37
					c-0.17,0.17-0.26,0.39-0.26,0.66v26.85c0,0.27,0.09,0.49,0.26,0.66c0.17,0.17,0.62,0.3,1.35,0.37v0.69h-11.87V150.12z
					 M676.9,110.93h7.38v6.68h-7.38V110.93z"/>
				<path class="st5" d="M719.2,150.12c0.35,0,0.61-0.03,0.81-0.09c0.19-0.06,0.29-0.28,0.29-0.66c0-0.12-0.17-0.46-0.52-1.04
					c-0.35-0.58-0.79-1.29-1.33-2.13c-0.54-0.84-1.13-1.75-1.79-2.71c-0.65-0.96-1.27-1.88-1.84-2.77
					c-0.58-0.88-1.09-1.65-1.56-2.31c-0.46-0.65-0.77-1.09-0.92-1.33l-5.65,5.07v6.92c0,0.27,0.09,0.49,0.26,0.66
					c0.17,0.17,0.62,0.3,1.35,0.37v0.69h-11.87v-0.69c0.73-0.08,1.18-0.2,1.35-0.37c0.17-0.17,0.26-0.39,0.26-0.66v-26.85
					c0-0.27-0.09-0.49-0.26-0.66c-0.17-0.17-0.62-0.3-1.35-0.37v-0.69h11.87v0.69c-0.73,0.08-1.18,0.2-1.35,0.37
					c-0.17,0.17-0.26,0.39-0.26,0.66v10.37h0.4c1.15-1.11,2.39-2.27,3.72-3.46c1.33-1.19,2.54-2.3,3.66-3.31
					c1.11-1.02,2.05-1.88,2.79-2.59c0.75-0.71,1.12-1.14,1.12-1.3c0-0.35-0.1-0.55-0.29-0.61c-0.19-0.06-0.44-0.11-0.75-0.14v-0.69
					h14.64v0.69c-0.38,0.04-0.7,0.1-0.95,0.17c-0.25,0.08-0.48,0.19-0.69,0.35c-0.21,0.15-0.44,0.34-0.69,0.55
					c-0.25,0.21-0.55,0.47-0.89,0.78l-9.97,8.59l11.76,17.58c0.31,0.46,0.6,0.73,0.86,0.81c0.27,0.08,0.6,0.12,0.98,0.12v0.69h-13.2
					V150.12z"/>
			</g>
		</g>
		<g>
			<g>
				<path class="st5" d="M738.07,110.93c3.13,0,5.68,2.54,5.68,5.68c0,3.14-2.54,5.68-5.68,5.68c-3.14,0-5.68-2.55-5.67-5.68
					C732.4,113.47,734.94,110.93,738.07,110.93z M738.07,111.8c-2.66,0.01-4.8,2.15-4.8,4.8c0,2.66,2.15,4.8,4.8,4.8
					c2.66,0,4.8-2.15,4.8-4.8C742.88,113.95,740.73,111.81,738.07,111.8z"/>
				<path class="st5" d="M739.52,117.39c0.25,0.61,0.49,1.22,0.73,1.84c-0.02,0-0.03,0-0.05,0c-0.26,0-0.52,0-0.78,0
					c-0.04,0-0.05-0.01-0.07-0.04c-0.22-0.55-0.44-1.11-0.66-1.66c-0.01-0.01-0.01-0.03-0.02-0.04c-0.49,0-0.98,0-1.48,0
					c0,0.58,0,1.16,0,1.74c-0.29,0-0.58,0-0.87,0c0-1.74,0-3.49,0-5.24c0.02,0,0.03,0,0.05,0c0.86,0,1.71,0,2.57,0
					c0.42,0,0.79,0.13,1.11,0.39c0.31,0.25,0.5,0.57,0.59,0.95c0.05,0.23,0.06,0.46,0.02,0.69c-0.05,0.31-0.17,0.58-0.36,0.82
					c-0.19,0.24-0.43,0.41-0.72,0.52C739.57,117.37,739.55,117.38,739.52,117.39z M737.2,116.61c0.01,0,0.01,0,0.02,0
					c0.57,0,1.15,0,1.72,0c0.22,0,0.42-0.07,0.59-0.21c0.19-0.17,0.28-0.39,0.29-0.64c0.01-0.23-0.06-0.44-0.22-0.61
					c-0.18-0.2-0.41-0.28-0.68-0.28c-0.56,0-1.12,0-1.68,0c-0.01,0-0.03,0-0.04,0C737.2,115.45,737.2,116.02,737.2,116.61z"/>
			</g>
		</g>
	</g>
</g>
</svg>
