<?xml version="1.0" encoding="utf-8"?>
<!-- Generator: Adobe Illustrator 26.0.1, SVG Export Plug-In . SVG Version: 6.00 Build 0)  -->
<svg version="1.1" id="katman_1" xmlns="http://www.w3.org/2000/svg" xmlns:xlink="http://www.w3.org/1999/xlink" x="0px" y="0px"
	 viewBox="0 0 498.67 474.67" style="enable-background:new 0 0 498.67 474.67;" xml:space="preserve">
<style type="text/css">
	.st0{fill:#122313;stroke:#F6E8B1;stroke-width:3;stroke-miterlimit:10;}
	.st1{fill:#0D0C0D;stroke:#F7E8B2;stroke-width:2;stroke-miterlimit:10;}
	.st2{fill:#F6E8B1;}
	.st3{clip-path:url(#SVGID_00000145038224831205248560000012916180830275663245_);}
	.st4{fill:none;stroke:#F6E8B1;stroke-width:4;stroke-miterlimit:10;}
</style>
<g>
	<g>
		<circle class="st0" cx="248.8" cy="235.77" r="149.93"/>
		<circle class="st1" cx="248.8" cy="235.77" r="114.09"/>
		<g>
			<polygon class="st2" points="379.91,226.41 382.47,234.61 390.76,234.61 384.05,239.67 386.61,247.87 379.91,242.8 
				373.21,247.87 375.77,239.67 369.07,234.61 377.35,234.61 			"/>
			<polygon class="st2" points="376.63,251.78 378.69,258.35 385.33,258.35 379.95,262.41 382.01,268.98 376.63,264.92 
				371.26,268.98 373.31,262.41 367.94,258.35 374.58,258.35 			"/>
			<polygon class="st2" points="376.63,203.6 378.69,210.16 385.33,210.16 379.95,214.22 382.01,220.79 376.63,216.73 
				371.26,220.79 373.31,214.22 367.94,210.16 374.58,210.16 			"/>
		</g>
		<g>
			<polygon class="st2" points="115.51,226.41 112.95,234.61 104.66,234.61 111.36,239.67 108.8,247.87 115.51,242.8 122.21,247.87 
				119.65,239.67 126.35,234.61 118.07,234.61 			"/>
			<polygon class="st2" points="118.78,251.78 116.73,258.35 110.09,258.35 115.46,262.41 113.41,268.98 118.78,264.92 
				124.16,268.98 122.1,262.41 127.48,258.35 120.84,258.35 			"/>
			<polygon class="st2" points="118.78,203.6 116.73,210.16 110.09,210.16 115.46,214.22 113.41,220.79 118.78,216.73 
				124.16,220.79 122.1,214.22 127.48,210.16 120.84,210.16 			"/>
		</g>
		<g>
			<g>
				<defs>
					<circle id="SVGID_1_" cx="248.58" cy="236.7" r="113.8"/>
				</defs>
				<clipPath id="SVGID_00000100356002015718507340000018285374755385349562_">
					<use xlink:href="#SVGID_1_"  style="overflow:visible;"/>
				</clipPath>
				<g style="clip-path:url(#SVGID_00000100356002015718507340000018285374755385349562_);">
					<path class="st2" d="M187.98,226.94c1.73-6.4,3.49-12.92,5.28-19.44c0.13-0.46,0.44-1.19,0.73-1.23
						c3.53-0.43,5.07-3.09,6.25-5.85c1.71-3.98,5.44-4.51,8.8-5.31c4.15-0.99,8.45-1.42,12.72-1.78c1.1-0.09,2.73,0.71,3.37,1.63
						c1.14,1.64,1.34,3.73-0.18,5.4c-2.14,2.34-4.43,4.55-6.65,6.83c-1.05,1.08-2.15,2.11-3.1,3.27c-1.63,1.98-2.41,4.39-1.11,6.65
						c1.88,3.27,0.94,6.52-0.16,9.34c-3.76,9.56-7.99,18.93-12.09,28.36c-0.98,2.25-1.88,4.59-3.26,6.58
						c-1.96,2.83-4.29,2.77-5.64-0.33c-1.38-3.17-2.31-6.66-2.73-10.1C189.23,243.11,188.71,235.21,187.98,226.94z M215.33,196.54
						c-2.3-0.15-4.2,1.58-4.26,3.87c-0.06,2.25,1.83,4.51,3.81,4.56c2.32,0.06,4.26-1.64,4.43-3.88
						C219.49,198.59,217.84,196.7,215.33,196.54z"/>
					<path class="st2" d="M302.93,211.4c-6.51-1.1-12.3-2.14-18.12-3.05c-14.08-2.2-28.24-3.29-42.49-2.72
						c-2.29,0.09-4.58,0.42-6.86,0.44c-3.64,0.04-4.92-1.86-3.64-5.3c1-2.68,1.83-5.23,0.27-8.12c-1-1.86,1.66-5.42,4.63-5.72
						c3.37-0.34,6.84,0,10.24,0.31c7.91,0.73,15.83,1.39,23.69,2.5c6.61,0.94,13.16,2.39,19.68,3.84c0.83,0.18,1.9,1.76,1.92,2.71
						c0.1,5.1,2.5,8.63,6.68,11.31C300.37,208.53,301.48,210,302.93,211.4z"/>
					<path class="st2" d="M315.8,221.56c-1.92,0.12-3.95,0.71-5.74,0.29c-12.38-2.86-24.79-2.42-37.15-0.37
						c-10.25,1.7-20.38,4.12-30.59,6.06c-3.1,0.59-6.31,0.81-9.47,0.85c-3.01,0.04-3.88-1.46-3.21-4.35
						c0.81-3.49,2.05-6.93,0.31-10.6c-0.78-1.64,0.59-2.92,2.14-3.39c1.5-0.45,3.12-0.65,4.69-0.7c20.41-0.6,40.64,0.8,60.52,5.71
						c5.47,1.35,10.88,2.92,16.31,4.44c0.8,0.22,1.52,0.69,2.28,1.04C315.86,220.88,315.83,221.22,315.8,221.56z"/>
					<path class="st2" d="M180.29,190.82c0.14-5.44,2.2-7.54,7.17-6.23c6.75,1.79,11.92-1.67,17.48-4.07
						c0.46-0.2,0.84-1.06,0.89-1.65c0.52-6.12,2.56-7.39,8.25-5.09c0.14,0.06,0.34-0.02,0.67-0.04c0.21-0.38,0.48-0.82,0.7-1.28
						c1.8-3.78,4.62-4.41,7.84-1.74c1.83,1.52,3.57,3.19,5.55,4.48c4.64,3,9.9,4.1,15.34,4.36c6.36,0.31,12.72,0.71,19.09,0.8
						c8.03,0.11,15.69,2.1,23.41,3.96c9.32,2.24,18.89,3.69,27.54,8.07c9.81,4.96,18.9,10.86,23.17,21.75
						c0.73,1.85,1.17,3.91,1.28,5.9c0.22,4.21-2.7,7.15-6.96,7.34c-1.5,0.07-3.01-0.06-4.51,0.04c-0.86,0.06-1.9,0.15-2.5,0.65
						c-3.45,2.89-7.63,3.14-11.51,2.24c-13.03-3.01-26-2.19-38.94,0.07c-9.62,1.68-19.15,3.93-28.71,5.94
						c-6.02,1.27-11.97,0.92-17.73-1.14c-1.98-0.71-2.7-0.04-3.36,1.61c-6.52,16.26-12.72,32.67-19.73,48.72
						c-4.18,9.56-5.06,19.53-6.24,29.58c-0.84,7.19-1.88,14.35-2.78,21.53c-1.22,9.81-2.36,19.62-3.59,29.43
						c-0.89,7.18-1.87,14.35-2.79,21.53c-0.67,5.25-1.52,10.49-1.89,15.77c-0.26,3.82-1.86,6.42-5.04,8.37
						c-5.34,3.28-10.59,6.69-15.88,10.05c-0.82,0.52-1.65,1.04-2.46,1.57c-3.03,2-6.48,0.4-6.93-3.25
						c-0.13-1.05-0.07-2.12-0.07-3.18c0-22.84,0-45.68,0-68.51c0-0.99,0-1.99,0-2.98c-0.25-0.05-0.51-0.11-0.76-0.16
						c-1.89,3.23-3.75,6.48-5.67,9.69c-0.67,1.12-1.36,2.32-2.31,3.17c-2.69,2.4-6.28,1.25-7.15-2.25
						c-0.33-1.35-0.47-2.79-0.47-4.18c-0.03-24.52,0.15-49.04-0.14-73.56c-0.07-6.04,1.5-11.09,4.49-16.19
						c10.75-18.34,21.23-36.84,31.88-55.24c0.91-1.57,0.98-2.61-0.42-3.88c-1.37-1.24-2.52-2.72-3.72-4.13
						c-1.52-1.77-1.99-3.8-0.87-5.88c1.19-2.2,3.13-2.99,5.61-2.39C178.37,190.61,179.25,190.66,180.29,190.82z M177.76,197.3
						c1.58,2,3.18,3.98,4.75,5.99c1,1.27,1.02,2.45,0.15,3.95c-5.35,9.18-10.57,18.43-15.86,27.64
						c-6.3,10.98-12.59,21.97-18.96,32.92c-2.25,3.87-2.01,3.21-2.02,7.42c-0.04,24.57-0.08,49.13-0.11,73.7c0,0.85,0,1.7,0.02,2.55
						c0.01,0.33,0.04,0.68,0.62,0.71c0.4-0.68,0.83-1.4,1.25-2.14c3.81-6.73,7.61-13.47,11.41-20.2c0.38-0.66,0.75-1.34,1.2-1.95
						c0.17-0.24,0.63-0.52,0.82-0.44c0.34,0.14,0.77,0.5,0.84,0.83c0.15,0.82,0.16,1.68,0.16,2.53c0.01,27.88,0.01,55.76,0.01,83.64
						c0,0.93-0.01,1.87,0.02,2.8c0.01,0.31,0.13,0.61,0.25,1.14c0.59-0.31,1.03-0.5,1.44-0.76c5.57-3.6,11.11-7.23,16.71-10.78
						c1.13-0.72,1.56-1.59,1.7-2.88c0.66-5.91,1.43-11.81,2.17-17.71c0.96-7.67,1.92-15.35,2.88-23.02
						c0.91-7.34,1.82-14.67,2.74-22.01c0.94-7.5,1.89-15.01,2.83-22.51c0.92-7.42,1.83-14.84,2.74-22.27
						c0.19-1.53,0.62-2.97,1.21-4.4c5.67-13.75,11.31-27.5,16.95-41.26c2.74-6.68,5.48-13.36,8.24-20.04
						c0.34-0.83,0.47-1.82,1.41-2.35c0.74,0.25,1.46,0.52,2.19,0.72c3.02,0.85,6.03,1.76,9.09,2.48c1.89,0.45,3.84,0.77,5.81,0.33
						c1.49-0.33,3-0.61,4.5-0.92c7.08-1.43,14.03-3.43,21.17-4.54c7.56-1.18,15.09-2.48,22.73-2.99c2.37-0.16,4.73-0.47,7.1-0.61
						c1.09-0.07,2.24-0.08,3.29,0.17c3.15,0.78,6.37,1.04,9.55,1.52c2.44,0.37,4.89,0.63,7.34,0.87c2.08,0.2,4.08,0.01,5.69-1.58
						c0.97-0.96,2.2-1.21,3.52-1.2c1.19,0.01,2.39,0.1,3.56-0.06c1.25-0.17,2.49-0.52,3.67-0.95c0.91-0.33,1.13-0.92,0.92-1.84
						c-0.19-0.83-0.43-1.64-0.7-2.45c-1.67-5.05-4.66-9.22-8.61-12.73c-3.14-2.79-6.65-5.01-10.43-6.8
						c-5.15-2.44-10.44-4.53-16.03-5.78c-1.74-0.39-3.46-0.87-5.2-1.25c-5.73-1.25-11.45-2.53-17.19-3.69
						c-4.01-0.8-8.1-0.92-12.17-1.14c-6.53-0.35-13.07-0.65-19.61-0.96c-2.65-0.12-5.25-0.54-7.8-1.21
						c-5.5-1.45-10.59-3.69-14.54-7.99c-0.26-0.29-0.65-0.47-1.26-0.9c0.22,1.67,0.4,3,0.57,4.33c0.28,2.18-0.48,2.8-2.6,2.07
						c-0.72-0.25-1.42-0.56-2.12-0.88c-1.09-0.49-2.15-1.02-3.25-1.48c-0.34-0.14-0.74-0.12-1.19-0.19c0,0.53-0.01,0.86,0,1.2
						c0.12,2.3-0.77,3.8-3.03,4.72c-3.3,1.34-6.56,2.84-9.68,4.55c-2.56,1.4-5.15,1.54-7.89,1.13c-0.67-0.1-1.34-0.25-2.02-0.3
						c-0.82-0.06-1.65-0.36-2.64,0.06c0,1.1,0.05,2.19-0.01,3.27c-0.06,1.08-0.02,2.21-0.78,3.16c-2.8-0.27-5.53-0.9-8.62-0.87
						C177.13,196.38,177.41,196.86,177.76,197.3z"/>
				</g>
			</g>
			<g>
				<g>
					<line class="st4" x1="195.06" y1="323.11" x2="363.06" y2="235.54"/>
					<line class="st4" x1="194.28" y1="335.53" x2="362.19" y2="249.11"/>
				</g>
			</g>
			<path class="st2" d="M273.82,296.75c-0.15-0.02-0.3-0.04-0.44-0.05c-0.52-0.06-1.02-0.11-1.5-0.12
				c-0.48-0.02-0.93-0.06-1.36-0.05c-0.43,0.01-0.83,0.01-1.21,0.02c-0.37,0.03-0.72,0.06-1.03,0.08c-0.62,0.03-1.11,0.15-1.44,0.19
				c-0.33,0.05-0.51,0.08-0.51,0.08l0.37,1.71c0,0,0.16-0.03,0.46-0.09c0.3-0.05,0.73-0.18,1.3-0.23c0.28-0.04,0.6-0.07,0.94-0.11
				c0.35-0.02,0.72-0.04,1.12-0.06c0.4-0.03,0.83-0.01,1.29-0.01c0.45-0.01,0.93,0.02,1.43,0.06c0.5,0.03,1.02,0.07,1.56,0.14
				c0.54,0.06,1.09,0.12,1.66,0.22c0.57,0.08,1.15,0.18,1.75,0.31c0.6,0.11,1.2,0.25,1.82,0.39c2.46,0.58,5.05,1.37,7.6,2.29
				c5.1,1.84,10.03,4.16,13.64,6.03c3.62,1.87,5.95,3.28,5.95,3.28s-2.37-1.34-6.04-3.1c-3.67-1.77-8.67-3.93-13.83-5.62
				c-2.58-0.85-5.19-1.56-7.67-2.06c-0.62-0.13-1.23-0.25-1.83-0.34c-0.6-0.11-1.19-0.19-1.76-0.26c-0.57-0.08-1.13-0.13-1.67-0.17
				c-0.45-0.05-0.88-0.07-1.3-0.08c0.4,18.04,17.29,13.86,28.03,12.85c4.99-0.47,8.1,0.01,8.1,0.01S290.49,277.68,273.82,296.75z"/>
			<path class="st2" d="M253.04,290.67c-0.11,0.15-0.22,0.31-0.32,0.46c-0.37,0.54-0.76,1.05-1.15,1.52
				c-0.38,0.48-0.72,0.94-1.1,1.34c-0.37,0.41-0.71,0.79-1.03,1.14c-0.34,0.34-0.66,0.65-0.94,0.92c-0.55,0.57-1.08,0.95-1.39,1.24
				c-0.33,0.28-0.51,0.43-0.51,0.43l-1.31-1.62c0,0,0.16-0.13,0.47-0.37c0.3-0.25,0.78-0.56,1.31-1.08c0.27-0.25,0.57-0.52,0.9-0.82
				c0.31-0.32,0.64-0.66,1-1.03c0.37-0.36,0.71-0.79,1.09-1.22c0.38-0.43,0.76-0.91,1.14-1.41c0.39-0.5,0.79-1.03,1.17-1.59
				c0.4-0.56,0.8-1.14,1.18-1.76c0.4-0.61,0.79-1.24,1.17-1.9c0.39-0.65,0.77-1.33,1.15-2.03c1.51-2.78,2.94-5.84,4.2-8.96
				c2.53-6.24,4.47-12.66,5.72-17.5c1.27-4.84,1.87-8.11,1.87-8.11s-0.71,3.25-2.13,8.07c-1.41,4.81-3.54,11.19-6.27,17.37
				c-1.36,3.08-2.88,6.11-4.48,8.85c-0.4,0.69-0.8,1.36-1.21,2c-0.4,0.65-0.81,1.28-1.23,1.87c-0.4,0.61-0.82,1.18-1.23,1.72
				c-0.33,0.46-0.68,0.9-1.02,1.31c-16.76-13.69,1.36-26.76,11.33-36.28c4.63-4.42,6.78-7.76,6.78-7.76S285.09,288.81,253.04,290.67
				z"/>
		</g>
		<g>
			<path class="st2" d="M117.98,174.26l4.55-8.28c3.27-5.97,9.79-7.71,16.37-4.11c6.57,3.6,8.61,10.03,5.34,16l-4.55,8.28
				L117.98,174.26z M139.99,175.81c1.99-3.62,0.72-7.4-3.44-9.68c-4.15-2.27-8.03-1.31-10.01,2.31l-2.12,3.85l13.46,7.37
				L139.99,175.81z"/>
			<path class="st2" d="M158.99,149.43l3.54,2.94l-10.3,12.39l-19.04-15.81l10.05-12.09l3.54,2.94l-6.99,8.41l4.13,3.43l6.18-7.43
				l3.42,2.85l-6.17,7.43l4.41,3.66L158.99,149.43z"/>
			<path class="st2" d="M180.1,137.48l-9.24-11.62l2.79,13.39l-1.7,1.35l-12.17-5.55l9.02,11.38l-3.54,2.81l-15.36-19.39l3.12-2.48
				l15.65,7.21l-3.54-16.81l3.1-2.46l15.41,19.35L180.1,137.48z"/>
			<path class="st2" d="M185.64,130.86l-0.49-4.59c2.25,0.56,5.06,0.32,7.29-0.82c2.54-1.3,3.06-2.83,2.37-4.18
				c-2.09-4.13-11.44,4.2-15.6-4c-1.9-3.75-0.94-8.17,4.33-10.85c2.33-1.19,5.05-1.74,7.43-1.32l0.64,4.55
				c-2.31-0.29-4.38,0.05-6.02,0.89c-2.54,1.3-2.94,2.93-2.24,4.32c2.06,4.06,11.43-4.23,15.53,3.87c1.87,3.69,0.9,8.15-4.39,10.85
				C191.54,131.06,188.05,131.54,185.64,130.86z"/>
			<path class="st2" d="M217.29,114.75l-9.26,2.78l-0.25,5.6l-4.73,1.42l1.8-26.34l4.56-1.37l16.02,21l-4.85,1.45L217.29,114.75z
				 M214.59,111.02l-5.88-8.11l-0.45,10.01L214.59,111.02z"/>
			<path class="st2" d="M235.52,114.12l1.5-4.36c1.8,1.46,4.45,2.43,6.94,2.35c2.85-0.09,3.97-1.26,3.92-2.78
				c-0.15-4.63-12.13-1.05-12.42-10.23c-0.13-4.2,2.6-7.8,8.51-7.99c2.62-0.09,5.31,0.56,7.29,1.95l-1.35,4.39
				c-1.98-1.24-3.98-1.81-5.82-1.75c-2.85,0.09-3.91,1.4-3.86,2.96c0.14,4.56,12.13,1.01,12.42,10.09c0.13,4.13-2.63,7.76-8.58,7.96
				C240.78,116.81,237.42,115.75,235.52,114.12z"/>
			<path class="st2" d="M273.15,113.89l-0.62,4.55l-15.97-2.17l3.35-24.5l15.59,2.11l-0.62,4.55l-10.84-1.47l-0.73,5.32l9.58,1.3
				l-0.61,4.41l-9.58-1.3l-0.78,5.66L273.15,113.89z"/>
			<path class="st2" d="M279.14,107.22c2.3-7.1,8.52-10.69,14.68-8.69c3.42,1.11,5.8,3.51,6.79,6.81l-3.98,2.28
				c-0.74-2.25-2.11-3.73-4.08-4.37c-3.7-1.2-7.33,1.04-8.77,5.48c-1.44,4.44,0.19,8.39,3.9,9.59c1.98,0.64,3.95,0.24,5.87-1.18
				l1.9,4.18c-2.74,2.12-6.08,2.67-9.53,1.55C279.78,120.89,276.85,114.32,279.14,107.22z"/>
			<path class="st2" d="M302.5,116.96l6.71-12.14l4.22,2.33l-6.6,11.95c-2.27,4.12-1.7,6.66,0.85,8.06c2.58,1.42,5,0.54,7.28-3.58
				l6.6-11.95l4.17,2.3l-6.71,12.14c-3.52,6.38-8.54,8.21-13.72,5.36C300.1,128.56,298.98,123.33,302.5,116.96z"/>
			<path class="st2" d="M327.95,147.04l1.37-7.86l-0.18-0.15l-3.2-2.69l-4.44,5.28l-3.69-3.1l15.94-18.95l6.89,5.79
				c4.25,3.57,4.71,8.43,1.14,12.69c-2.39,2.84-5.35,3.91-8.31,3.23l-1.55,9.09L327.95,147.04z M337.42,128.76l-3-2.52l-5.55,6.61
				l3,2.52c2.26,1.89,4.44,1.6,6.17-0.46C339.79,132.83,339.68,130.65,337.42,128.76z"/>
			<path class="st2" d="M352.8,136.99l3.22,3.57l-18.39,16.54l-3.21-3.58L352.8,136.99z"/>
			<path class="st2" d="M360.33,153.46l-3.81-5.47l3.84-2.67l10.35,14.89l-3.84,2.67l-3.8-5.47l-16.49,11.48l-2.75-3.96
				L360.33,153.46z"/>
			<path class="st2" d="M363.81,181.85l-7.91,3.79l-2.08-4.34l7.96-3.82l10.86-14.14l2.21,4.61l-7.51,9.77l12.32,0.26l2.04,4.26
				L363.81,181.85z"/>
		</g>
		<g>
			<path class="st2" d="M140.64,282.8l3.7,8.78c2.67,6.33,0.18,12.48-6.46,15.27c-6.64,2.79-12.79,0.27-15.46-6.05l-3.71-8.79
				L140.64,282.8z M126.49,298.83c1.62,3.84,5.28,5.26,9.48,3.5c4.2-1.76,5.73-5.37,4.11-9.21l-1.73-4.09l-13.59,5.72L126.49,298.83
				z"/>
			<path class="st2" d="M144.59,329.6l-3.58,2.56l-9.44-13.22l19.3-13.82l9.22,12.9l-3.58,2.57l-6.41-8.97l-4.2,3l5.66,7.93
				l-3.47,2.49l-5.67-7.93l-4.46,3.19L144.59,329.6z"/>
			<path class="st2" d="M161.16,351.71l9.42-10.71l-12.41,4.72l-1.64-1.45l2.97-12.64l-9.23,10.46l-3.42-3.01l15.74-17.82l3.01,2.66
				l-3.89,16.27l15.58-5.96l2.99,2.63l-15.69,17.86L161.16,351.71z"/>
			<path class="st2" d="M172.7,357.23l3.46-2.81c0.83,2.14,2.64,4.32,4.83,5.55c2.51,1.41,4.06,1.03,4.77-0.24
				c2.16-3.88-9.97-7.18-5.67-14.88c1.97-3.52,6.12-5.05,11.32-2.13c2.3,1.29,4.3,3.23,5.33,5.4l-3.34,2.91
				c-1.09-2.05-2.55-3.57-4.17-4.47c-2.51-1.41-4.07-0.88-4.8,0.42c-2.13,3.82,9.98,7.15,5.73,14.76c-1.94,3.46-6.13,5-11.36,2.07
				C175.91,362.18,173.54,359.56,172.7,357.23z"/>
			<path class="st2" d="M208.82,370.61l-9.25-3.1l-3.38,4.23l-4.72-1.59l16.45-19.53l4.55,1.53l1.32,25.5l-4.84-1.62L208.82,370.61z
				 M208.7,366.17l-0.25-9.68l-6.06,7.56L208.7,366.17z"/>
			<path class="st2" d="M230.35,378.17l1.89-4.03c1.68,1.56,4.25,2.74,6.76,2.89c2.87,0.17,4.1-0.84,4.19-2.29
				c0.27-4.44-12.09-2.12-11.56-10.93c0.25-4.03,3.32-7.21,9.27-6.85c2.63,0.16,5.28,1.03,7.14,2.54l-1.75,4.08
				c-1.87-1.37-3.83-2.1-5.69-2.21c-2.87-0.17-4.05,0.98-4.14,2.47c-0.26,4.37,12.09,2.09,11.57,10.79
				c-0.24,3.96-3.34,7.17-9.33,6.81C235.39,381.23,232.11,379.91,230.35,378.17z"/>
			<path class="st2" d="M270.89,375.06l0.49,4.38l-16.14,1.82l-2.63-23.59l15.75-1.78l0.49,4.38l-10.96,1.24l0.57,5.12l9.68-1.09
				l0.47,4.25l-9.68,1.09l0.61,5.46L270.89,375.06z"/>
			<path class="st2" d="M274.86,366.78c-2.04-6.86,1.15-13.15,7.41-15.01c3.48-1.03,6.81-0.46,9.48,1.57l-2.06,4.01
				c-1.87-1.35-3.84-1.76-5.85-1.16c-3.77,1.12-5.55,4.91-4.27,9.19c1.28,4.29,4.84,6.49,8.6,5.37c2.01-0.6,3.44-2.01,4.26-4.2
				l3.91,2.23c-1.12,3.19-3.59,5.49-7.09,6.53C283.03,377.16,276.91,373.64,274.86,366.78z"/>
			<path class="st2" d="M299.6,360.3l-6.05-11.84l4.32-2.21l5.96,11.66c2.05,4.02,4.45,4.88,7.07,3.54
				c2.64-1.35,3.31-3.79,1.26-7.81l-5.96-11.66l4.27-2.19l6.05,11.84c3.18,6.22,1.79,11.28-3.52,14S302.78,366.52,299.6,360.3z"/>
			<path class="st2" d="M339.67,347.82l-7.23-2.79l-0.19,0.14l-3.36,2.57l4.02,5.25l-3.86,2.96l-14.44-18.85l7.21-5.53
				c4.45-3.41,9.24-2.93,12.48,1.3c2.17,2.83,2.49,5.87,1.13,8.58l8.38,3.2L339.67,347.82z M324.33,335.29l-3.14,2.41l5.04,6.57
				l3.14-2.4c2.36-1.8,2.6-3.96,1.03-6C328.81,333.78,326.69,333.48,324.33,335.29z"/>
			<path class="st2" d="M332.2,322.65l3.42-3.43l16.79,16.8l-3.43,3.43L332.2,322.65z"/>
			<path class="st2" d="M345.81,314.49l-4.13,5.3l-3.53-2.75l11.25-14.42l3.53,2.75l-4.13,5.3l15.18,11.83l-2.98,3.83L345.81,314.49
				z"/>
			<path class="st2" d="M368.96,298.76l7.41,3.99l-2.3,4.28l-7.48-4.02l-17.3-0.07l2.44-4.55l11.96,0.06l-6.64-9.95l2.26-4.2
				L368.96,298.76z"/>
		</g>
	</g>
</g>
</svg>
